<?xml version="1.0" standalone="no"?>
<!DOCTYPE svg PUBLIC "-//W3C//DTD SVG 20010904//EN"
 "http://www.w3.org/TR/2001/REC-SVG-20010904/DTD/svg10.dtd">
<svg version="1.0" xmlns="http://www.w3.org/2000/svg"
 width="512.000000pt" height="512.000000pt" viewBox="0 0 512.000000 512.000000"
 preserveAspectRatio="xMidYMid meet">
<metadata>
Created by potrace 1.14, written by Peter Selinger 2001-2017
</metadata>
<g transform="translate(0.000000,512.000000) scale(0.100000,-0.100000)"
fill="#000000" stroke="none">
<path d="M2398 4125 c-3 -3 -45 -8 -94 -10 -147 -7 -268 -18 -359 -31 -16 -3
-46 -6 -65 -8 -19 -2 -62 -9 -95 -16 -33 -7 -70 -13 -82 -13 -13 -1 -23 -3
-23 -6 0 -4 -10 -7 -22 -7 -33 -2 -80 -10 -98 -18 -8 -3 -26 -8 -40 -10 -14
-3 -25 -5 -25 -7 0 -1 -9 -3 -20 -4 -11 -1 -40 -8 -65 -16 -25 -7 -48 -13 -52
-15 -5 -1 -9 -2 -10 -4 -2 -1 -10 -3 -18 -5 -64 -13 -343 -117 -367 -137 -7
-6 -13 -8 -13 -5 0 7 -212 -101 -220 -112 -3 -3 -22 -15 -42 -25 -21 -11 -38
-23 -38 -28 0 -4 -7 -8 -15 -8 -8 0 -15 -5 -15 -11 0 -5 -4 -8 -9 -5 -5 3 -11
-1 -15 -9 -3 -8 -12 -15 -19 -15 -8 0 -23 -11 -33 -25 -10 -14 -22 -25 -27
-25 -15 0 -207 -200 -207 -215 0 -3 -8 -15 -18 -26 -15 -16 -84 -141 -88 -159
-1 -5 -8 -26 -21 -57 -4 -10 -8 -22 -9 -28 -1 -5 -3 -12 -4 -15 -3 -7 -11 -50
-14 -81 -1 -14 -5 -30 -8 -35 -9 -15 -3 -798 6 -812 4 -7 10 -28 13 -45 3 -18
13 -56 23 -84 10 -29 15 -53 12 -53 -4 0 -1 -4 6 -8 7 -5 14 -18 16 -29 5 -23
75 -140 119 -198 52 -68 228 -234 249 -235 5 0 19 -10 34 -22 14 -13 29 -23
32 -23 4 0 27 -12 52 -27 25 -15 59 -32 75 -40 17 -7 32 -15 35 -18 15 -16
265 -94 340 -106 19 -3 41 -7 49 -10 8 -2 37 -7 64 -10 28 -3 71 -9 96 -13 53
-8 321 -7 366 2 17 3 62 11 102 17 87 14 94 15 113 23 8 3 47 13 85 22 93 22
369 104 440 131 11 4 33 9 49 11 15 3 40 9 55 15 14 6 33 12 41 12 8 1 20 4
25 7 6 4 26 9 45 13 19 3 46 9 60 12 14 3 36 7 50 8 14 1 30 4 35 7 6 3 28 5
50 5 22 -1 43 3 47 9 5 6 8 7 8 0 0 -5 24 -10 53 -9 28 0 56 -2 62 -5 5 -3 22
-6 38 -7 52 -4 256 -80 277 -104 3 -3 44 -31 92 -64 47 -32 100 -71 117 -87
17 -15 31 -26 31 -23 0 4 81 -46 90 -57 3 -3 20 -12 38 -20 17 -8 32 -16 32
-19 0 -3 10 -6 22 -7 11 -1 24 -7 28 -13 4 -6 17 -12 28 -13 12 -1 22 -4 22
-8 0 -4 12 -9 28 -12 15 -3 45 -10 67 -16 68 -17 98 -23 150 -27 118 -10 145
-10 145 0 0 7 3 8 8 1 6 -9 47 -13 62 -6 3 1 21 4 40 7 19 2 42 7 50 11 8 3
21 7 28 9 8 1 21 6 30 10 9 4 23 8 30 10 8 1 21 9 30 17 10 8 27 18 40 21 12
4 22 12 22 17 0 5 6 9 13 9 6 0 39 26 72 58 68 67 118 122 109 122 -3 0 8 19
25 42 17 23 31 48 31 56 0 7 6 20 14 27 7 8 20 34 27 59 7 26 16 46 20 46 4 0
6 8 5 17 -2 10 3 32 11 50 7 18 15 49 18 70 4 21 8 45 11 53 14 39 18 176 18
550 1 385 -2 463 -13 485 -3 5 -6 21 -7 35 -3 23 -18 83 -32 120 -3 8 -6 17
-7 20 -15 55 -83 202 -99 212 -6 4 -8 8 -4 8 8 0 -82 136 -122 185 -42 50
-182 188 -229 225 -24 19 -52 43 -63 53 -10 9 -18 14 -18 11 0 -3 -7 1 -15 8
-25 23 -39 33 -95 68 -30 19 -57 37 -60 40 -3 3 -11 6 -19 8 -8 2 -26 11 -40
21 -69 48 -435 201 -488 204 -7 0 -13 4 -13 8 0 4 -8 6 -17 4 -10 -1 -24 2
-30 8 -7 5 -13 6 -13 2 0 -4 -7 -2 -15 5 -8 7 -15 9 -15 5 0 -4 -7 -2 -15 5
-8 7 -15 10 -15 7 0 -3 -16 -1 -36 5 -60 16 -78 20 -101 21 -13 1 -23 4 -23 8
0 3 -21 9 -47 12 -27 4 -59 9 -73 11 -14 3 -41 7 -60 10 -19 3 -53 8 -75 12
-22 4 -59 8 -82 8 -24 1 -43 4 -43 7 0 3 -19 5 -42 4 -24 0 -47 1 -51 3 -9 5
-102 13 -127 12 -30 -1 -55 0 -75 4 -11 2 -26 -2 -34 -8 -12 -9 -13 -8 -6 4 8
13 7 13 -8 1 -9 -7 -17 -9 -17 -4 0 10 -105 11 -116 1 -3 -4 -14 -3 -23 1 -9
5 -18 10 -21 12 -3 1 -14 -3 -26 -9 -14 -7 -24 -8 -31 -1 -5 5 -12 7 -15 4z"/>
</g>
</svg>
