<svg height="511pt" viewBox="0 -3 511.77383 511" width="511pt" xmlns="http://www.w3.org/2000/svg"><path d="m166.351562 266.152344c-1.492187-.007813-2.878906-.78125-3.667968-2.046875-1.195313-1.984375-.589844-4.558594 1.363281-5.800781l18.261719-11.4375-28.585938 16.46875c-.96875.585937-2.132812.75-3.226562.460937s-2.023438-1.007813-2.574219-1.996094c-1.195313-1.984375-.589844-4.558593 1.363281-5.800781l58.113282-37.035156-63.148438 36.523437c-.96875.582031-2.132812.746094-3.226562.457031-1.09375-.289062-2.019532-1.007812-2.574219-1.996093-1.195313-1.984375-.589844-4.558594 1.363281-5.800781l47.617188-30.039063-47.785157 27.5625c-2.007812 1.183594-4.589843.535156-5.804687-1.449219-1.203125-2.011718-.601563-4.613281 1.367187-5.886718l34.558594-21.589844-31.230469 18.003906c-1.984375.996094-4.394531.304688-5.554687-1.585938-1.15625-1.890624-.671875-4.355468 1.117187-5.667968l69.289063-44.03125-64.851563 37.460937c-1.992187 1.078125-4.480468.449219-5.71875-1.449219-1.195312-1.984374-.589844-4.558593 1.367188-5.804687l93.351562-60.242187-88.914062 51.199218c-1.984375.992188-4.394532.304688-5.554688-1.589844-1.15625-1.890624-.671875-4.351562 1.117188-5.664062l81.148437-51.96875-76.796875 44.289062c-1.984375.992188-4.394531.304688-5.554687-1.589843-1.15625-1.890625-.671875-4.351563 1.117187-5.664063l65.363282-41.472656-60.925782 35.15625c-1.984375.996094-4.394531.304688-5.554687-1.585938-1.15625-1.890624-.671875-4.351562 1.117187-5.664062l110.933594-72.875-106.410156 61.4375c-1.984375.996094-4.394532.304688-5.554688-1.585938-1.15625-1.890624-.671875-4.355468 1.117188-5.664062l79.273437-51.203125-74.835937 43.691406c-1.296875.808594-2.925782.863281-4.273438.144531s-2.210937-2.101562-2.261718-3.625c-.050782-1.527343.714843-2.964843 2.011718-3.773437l95.230469-64.683594-90.707031 52.398438c-1.980469 1.171875-4.539063.523437-5.71875-1.453125-1.230469-1.941406-.699219-4.503906 1.195312-5.800782l64.253906-43.179687-59.730468 34.132813c-.960938.589843-2.117188.769531-3.207032.496093-1.09375-.273437-2.03125-.972656-2.597656-1.945312-1.195312-1.984375-.589844-4.5625 1.367188-5.804688l7.167968-4.605469-2.730468 1.535157c-1.960938 1.1875-4.507813.578125-5.71875-1.367188-1.246094-1.917969-.757813-4.476562 1.109375-5.800781l51.96875-37.121094-47.359375 27.390625c-1.296875.824219-2.933594.894531-4.292969.183594-1.363281-.710937-2.242187-2.09375-2.304687-3.625-.066407-1.535156.691406-2.988281 1.988281-3.808594l17.066406-11.949219-12.714844 7.253907c-1.964843 1.140625-4.480469.539062-5.71875-1.363281-.617187-.90625-.84375-2.019532-.636719-3.09375.207032-1.070313.835938-2.019532 1.746094-2.625l11.265625-8.535157-6.65625 3.839844c-1.894531.976563-4.214843.402344-5.441406-1.335937-1.222656-1.742188-.976563-4.121094.578125-5.574219l18.515625-15.785157-13.652344 7.847657c-1.738281 1.03125-3.964843.671875-5.289062-.851563-1.226563-1.550781-1.226563-3.742187 0-5.292968l10.578125-14.675782c-1.957032.777344-4.191406-.027344-5.203125-1.878906-1.164063-2.027344-.480469-4.613281 1.535156-5.800781l16.382813-9.128907c1.773437-1.078124 4.058593-.757812 5.460937.765626 1.242187 1.578124 1.242187 3.796874 0 5.375l-10.238281 14.507812 36.949218-21.332031c1.902344-1.121094 4.347657-.601563 5.632813 1.195312 1.246094 1.804688.953125 4.253907-.683594 5.714844l-18.601562 15.789063 39.421875-22.699219c1.960937-1.1875 4.507812-.578125 5.71875 1.363281 1.199218 1.929688.71875 4.457031-1.109375 5.804688l-11.347657 8.53125 26.535157-15.699219c1.960937-1.1875 4.507812-.578125 5.71875 1.363281 1.292969 1.910156.796875 4.507812-1.109375 5.804688l-17.152344 12.03125 33.195312-19.199219c1.957032-1.1875 4.507813-.578125 5.71875 1.363281 1.1875 1.902344.703126 4.402344-1.109374 5.71875l-51.96875 37.546875 77.3125-44.628906c1.980468-1.171875 4.535156-.523438 5.714843 1.449219 1.167969 1.96875.609375 4.507812-1.277343 5.804687l-7.167969 4.691406 20.5625-11.945312c1.992187-1.148438 4.535156-.550781 5.804687 1.363281 1.210938 1.964844.644532 4.535156-1.28125 5.804688l-64.253906 43.261718 87.378906-50.429687c1.964844-1.140625 4.480469-.539063 5.71875 1.363281 1.226563 1.941406.699219 4.507812-1.195312 5.804688l-95.230469 64.511718 119.039063-68.265625c1.980468-1.171875 4.535156-.523437 5.71875 1.449219 1.164062 1.96875.605468 4.503906-1.28125 5.800781l-79.359376 51.203125 84.992188-49.921875c1.980469-.992187 4.394531-.304687 5.550781 1.589844 1.15625 1.890625.671875 4.351563-1.113281 5.664063l-110.933594 72.875 110.933594-63.828126c1.980469-.996093 4.394531-.304687 5.550781 1.585938s.671875 4.351562-1.113281 5.664062l-65.539062 41.644532 60.84375-35.15625c2.035156-1.117188 4.589843-.441406 5.804687 1.535156 1.195313 1.984375.589844 4.558594-1.367187 5.800781l-81.152344 51.96875 76.800781-44.371093c1.3125-.792969 2.945313-.828126 4.285156-.089844 1.34375.742187 2.191407 2.140625 2.21875 3.671875.03125 1.53125-.753906 2.960937-2.066406 3.753906l-93.867187 60.246094 89.003906-51.199219c1.308594-.792969 2.945312-.824219 4.285156-.085938 1.34375.738282 2.1875 2.136719 2.21875 3.667969s-.757812 2.964844-2.066406 3.757813l-69.207032 43.945312 64.769532-37.375c1.980468-.996094 4.394531-.304687 5.550781 1.585938s.671875 4.355468-1.113281 5.667968l-34.648438 21.671876 30.210938-17.066407c1.980468-.992187 4.394531-.300781 5.550781 1.589844s.671875 4.351563-1.113281 5.664063l-47.703125 30.039062 43.265625-24.917969c2.003906-1.179687 4.585937-.535156 5.800781 1.449219 1.207031 2.011719.601563 4.613281-1.363281 5.886719l-57.855469 36.523437 53.757813-31.058594c.96875-.585937 2.132812-.75 3.226562-.460937s2.023438 1.007813 2.578125 1.996094c1.195313 1.984375.589844 4.558593-1.367187 5.800781l-18.261719 11.4375 13.824219-7.9375c1.984374-.992188 4.394531-.304688 5.550781 1.585938 1.160156 1.894531.675781 4.355468-1.113281 5.667968l-41.640626 26.878906 37.203126-21.503906c1.988281-1.125 4.507812-.484375 5.71875 1.449219.617187.90625.847656 2.019531.636718 3.089844-.207031 1.074219-.835937 2.023437-1.746094 2.628906l-71.167968 49.40625 66.558594-38.398437c1.972656-1.125 4.476562-.507813 5.703124 1.398437 1.226563 1.910156.746094 4.445313-1.09375 5.769531l-57.003906 41.386719 52.394532-30.292969c1.980468-1.171875 4.535156-.523437 5.71875 1.449219.609374.914063.824218 2.035156.601562 3.109375-.226562 1.074219-.875 2.015625-1.796875 2.609375l-14.25 9.8125 9.726563-5.546875c1.917968-.996094 4.277343-.40625 5.496093 1.378906s.910157 4.199219-.71875 5.621094l-29.351562 23.125 24.574219-14.167969c1.910156-1.191406 4.425781-.621093 5.632812 1.28125 1.289062 1.828125.914062 4.347657-.855469 5.71875l-10.921875 8.445313 5.804688-3.328125c1.824218-1.050781 4.140625-.617188 5.460937 1.027343 1.402344 1.582032 1.402344 3.960938 0 5.542969l-10.324219 11.179688 3.15625-1.792969c1.316407-.957031 3.0625-1.082031 4.503907-.320312 1.441406.761718 2.320312 2.277343 2.269531 3.90625-.050781 1.625-1.023438 3.082031-2.507812 3.753906l-27.390626 15.871094c-1.816406 1.09375-4.164062.652343-5.460937-1.023438-1.367187-1.597656-1.367187-3.949219 0-5.546875l10.324219-11.175781-30.550782 17.746094c-1.914062 1-4.277343.410156-5.496093-1.375-1.21875-1.785157-.910157-4.199219.71875-5.621094l10.667969-8.53125-26.882813 15.527344c-1.914063 1-4.277344.410156-5.496094-1.375-1.21875-1.785157-.910156-4.199219.71875-5.621094l29.355469-23.125-52.226562 30.121094c-1.964844 1.140624-4.476563.539062-5.714844-1.363282-.613282-.929687-.832032-2.0625-.609375-3.148437.226562-1.089844.875-2.046875 1.804687-2.65625l14.25-9.8125-29.527344 17.066406c-1.925781.898437-4.21875.242187-5.378906-1.539063s-.832031-4.144531.773438-5.542968l57.085937-41.472656-84.394531 48.46875c-1.984375 1.195312-4.558594.589843-5.800781-1.363282-1.230469-1.941406-.703125-4.503906 1.195312-5.804687l71.082031-49.40625-97.621093 56.574219c-1.984375.996093-4.394531.304687-5.554688-1.585938-1.15625-1.890625-.671875-4.355469 1.117188-5.664062l41.640625-26.882813-59.136719 34.132813c-.640625.398437-1.378906.605468-2.132813.597656zm0 0" fill="#fab153" fill-rule="evenodd"/><path d="m288.292969 120.320312c-1.476563.019532-2.859375-.738281-3.628907-2-.773437-1.265624-.820312-2.839843-.125-4.144531l3.414063-6.828125-8.535156 5.121094c-1.78125.960938-3.992188.542969-5.296875-1.007812-1.300782-1.550782-1.335938-3.804688-.078125-5.394532l5.972656-7.25-10.238281 5.886719c-1.863282 1.074219-4.230469.59375-5.53125-1.117187-1.296875-1.710938-1.121094-4.121094.410156-5.625l6.65625-6.484376-11.859375 6.828126c-1.996094.898437-4.347656.144531-5.449219-1.746094-1.097656-1.890625-.589844-4.308594 1.179688-5.59375l41.132812-23.722656c1.855469-1.128907 4.265625-.644532 5.546875 1.109374 1.414063 1.609376 1.414063 4.019532 0 5.632813l-6.570312 6.398437 1.449219-.851562c1.785156-1.027344 4.042968-.632812 5.375.9375 1.332031 1.609375 1.332031 3.9375 0 5.546875l-5.972657 7.167969h.511719c1.628906-.929688 3.667969-.6875 5.035156.597656 1.425782 1.265625 1.808594 3.335938.9375 5.035156l-4.179687 8.53125c1.285156.167969 2.421875.925782 3.070312 2.046875 1.101563 2.058594.386719 4.617188-1.621093 5.804688l-8.53125 5.121093c-.992188.371094-2.082032.371094-3.074219 0zm0 0" fill="#ffd67b" fill-rule="evenodd"/><path d="m220.027344 120.660156c-1.871094.015625-3.53125-1.191406-4.097656-2.972656-.566407-1.78125.089843-3.722656 1.621093-4.792969l12.121094-8.53125-14.167969 8.53125c-1.964844 1.140625-4.476562.539063-5.714844-1.363281-1.253906-1.871094-.804687-4.398438 1.023438-5.71875l19.710938-14.421875-15.105469 8.535156c-1.910157 1.191407-4.425781.621094-5.628907-1.28125-1.25-1.835937-.878906-4.324219.851563-5.71875l36.523437-28.585937-31.746093 18.089844c-1.925781.902343-4.21875.242187-5.378907-1.539063-1.160156-1.78125-.832031-4.144531.773438-5.542969l18.6875-13.652344-14.082031 8.53125c-1.957031 1.1875-4.503907.582032-5.714844-1.363281-1.246094-1.917969-.757813-4.480469 1.109375-5.804687l7.167969-5.714844-2.5625 1.535156c-1.96875 1.125-4.476563.507813-5.703125-1.398437-1.226563-1.910157-.746094-4.445313 1.097656-5.769531l3.582031-2.644532c-1.722656.429688-3.535156-.207031-4.605469-1.621094-1.246093-1.804687-.953124-4.257812.679688-5.71875l12.203125-10.75-7.253906 4.179688c-1.808594 1.035156-4.101563.640625-5.460938-.9375-1.328125-1.609375-1.328125-3.9375 0-5.546875l5.460938-5.460937c-1.476563.964843-3.386719.964843-4.863281 0-1.363282-1.144532-1.875-3.015626-1.28125-4.695313l1.707031-5.289063c-.558594-.375-1.023438-.871093-1.363281-1.453124-.582032-.96875-.75-2.132813-.460938-3.226563.289062-1.089844 1.011719-2.019531 1.996094-2.574219l4.265625-2.476562c1.464843-1.011719 3.402343-1.011719 4.867187 0 1.351563 1.152344 1.886719 3 1.363282 4.695312l-.683594 2.046875 12.375-7.59375c1.777344-.992187 4.011718-.558593 5.289062 1.023438 1.355469 1.570312 1.355469 3.890625 0 5.460937l-5.289062 6.058594 22.355468-12.628906c1.90625-1.117188 4.347657-.601563 5.632813 1.195312 1.207031 1.8125.917969 4.238282-.683594 5.71875l-12.628906 10.75 30.722656-17.75c1.96875-1.09375 4.453125-.5 5.714844 1.367188 1.246094 1.917968.757813 4.476562-1.109375 5.800781l-2.046875 1.792969 15.019531-8.535156c1.96875-1.09375 4.453125-.5 5.714844 1.367187 1.296875 1.910156.796875 4.503906-1.109375 5.800781l-7.25 5.121094 2.644531-1.535156c1.96875-1.09375 4.453125-.503906 5.714844 1.363281 1.296875 1.910156.796875 4.507813-1.109375 5.804687l-18.941406 13.398438 13.992187-8.535156c1.945313-1.15625 4.453125-.59375 5.71875 1.28125 1.238282 1.882812.832032 4.402344-.9375 5.800781l-36.523437 28.503906 31.402343-18.09375c1.96875-1.121093 4.476563-.507812 5.703126 1.402344 1.226562 1.90625.746093 4.441406-1.09375 5.765625l-18.945313 14.335938 15.019531-8.53125c1.96875-1.125 4.476563-.507813 5.703125 1.398437 1.226563 1.910156.746094 4.441406-1.097656 5.769531l-58.707031 42.667969c.175781 1.667969-.664063 3.28125-2.132813 4.09375l-17.582031 10.15625c-.746094.429687-1.625.578125-2.472656.425781zm0 0" fill="#ffd67b" fill-rule="evenodd"/><path d="m132.5625 505.085938c-1.808594-.007813-3.414062-1.15625-4.007812-2.863282-.59375-1.703125-.046876-3.601562 1.359374-4.730468l21.503907-17.066407-38.570313 22.273438c-1.957031 1.1875-4.507812.578125-5.714844-1.367188-1.265624-1.898437-.8125-4.453125 1.023438-5.800781l15.359375-11.523438-17.066406 10.070313c-1.972657 1.097656-4.453125.503906-5.71875-1.363281-1.21875-1.90625-.773438-4.429688 1.023437-5.804688l29.183594-21.417968-26.28125 15.1875c-1.957031 1.1875-4.507812.582031-5.71875-1.363282-1.234375-1.890625-.742188-4.425781 1.109375-5.71875l27.648437-20.480468-23.976562 13.824218c-1.910156 1.195313-4.425781.625-5.632812-1.277344-1.28125-1.875-.871094-4.429687.9375-5.804687l37.207031-27.648437-36.097657 20.824218c-1.984374 1.121094-4.503906.484375-5.714843-1.453125-.617188-.902343-.847657-2.015625-.640625-3.089843.210937-1.074219.839844-2.019532 1.75-2.625l19.371094-13.65625-20.480469 11.777343c-1.972657 1.09375-4.453125.503907-5.71875-1.367187-1.226563-1.9375-.699219-4.503906 1.195312-5.800782l27.988281-19.882812-31.574218 18.175781c-1.964844 1.140625-4.476563.539063-5.714844-1.363281-1.160156-1.9375-.683594-4.433594 1.109375-5.804688l36.265625-25.601562-41.472656 23.46875c-1.96875 1.125-4.476563.507812-5.703125-1.398438-1.226563-1.910156-.746094-4.445312 1.09375-5.769531l44.203125-32.339843-50.175782 29.4375c-1.96875 1.097656-4.453124.503906-5.714843-1.363282-1.21875-1.90625-.773438-4.429687 1.023437-5.804687l51.882813-39.253907-59.734375 34.132813c-1.972656 1.097656-4.453125.503906-5.71875-1.363281-1.261719-1.898438-.8125-4.453125 1.027344-5.804688l40.53125-29.269531-45.824219 26.539063c-1.980469 1.296874-4.632813.742187-5.929688-1.234376-1.296875-1.980468-.742187-4.636718 1.238281-5.933593l43.433594-31.65625-49.410156 28.5c-2.003906 1.085937-4.507812.363281-5.628906-1.621094-1.3125-1.886719-.855469-4.476563 1.023437-5.800781l43.519531-31.746094-49.324218 29.015625c-2.003906 1.015625-4.457032.257813-5.546875-1.707031-1.234375-1.894532-.742188-4.425782 1.109375-5.71875l37.378906-26.710938-40.195312 23.042969c-1.96875 1.121094-4.472657.507813-5.703126-1.398437-1.226562-1.910157-.742187-4.445313 1.097657-5.769532l35.753906-25.601562-34.816406 20.054687c-1.96875 1.121094-4.476563.507813-5.703125-1.398437-1.226563-1.910156-.746094-4.445313 1.09375-5.769532l11.265625-7.765624-7.421875 4.605468c-1.972656 1.125-4.476563.511719-5.703125-1.398437-1.230469-1.90625-.746094-4.441407 1.09375-5.769531l25.597656-18.601563-20.988281 12.03125c-1.972656 1.125-4.476563.511719-5.703125-1.398437-1.230469-1.90625-.746094-4.441407 1.09375-5.769532l19.882812-14.503906-15.273437 8.53125c-1.917969 1.148438-4.398438.582031-5.632813-1.28125-1.292969-1.824219-.914062-4.34375.851563-5.714844l21.847656-17.066406-17.066406 9.8125c-1.90625 1.117188-4.347656.601562-5.632813-1.195312-1.265625-1.816407-.933593-4.300782.765625-5.71875l32.511719-27.816407-27.644531 16.128907c-1.90625 1.117187-4.347656.601562-5.632813-1.195313-1.277343-1.84375-.945312-4.355469.765625-5.804687l29.269532-24.234376-24.402344 14.167969c-1.925782 1.101563-4.375.542969-5.632813-1.28125-1.292969-1.828125-.914062-4.347656.851563-5.71875l24.40625-19.625-19.625 11.261719c-1.894532.976562-4.21875.402344-5.441406-1.335938-1.226563-1.742187-.980469-4.121093.574218-5.574218l28.074219-23.550782-23.207031 13.566407c-1.929688 1.199219-4.460938.675781-5.753906-1.191407-1.296876-1.863281-.90625-4.414062.886718-5.804687l32.257813-27.476563-27.390625 15.527344c-1.898438 1.164063-4.375.640625-5.632813-1.191406-1.265625-1.816406-.933593-4.300781.765625-5.71875l31.234375-26.367188-26.367187 15.445313c-1.972656 1.09375-4.457032.5-5.71875-1.367187-1.210938-1.878907-.761719-4.375 1.023437-5.714844l6.058594-4.523438-1.363281.851563c-1.925782 1.101562-4.375.546875-5.632813-1.277344-1.265625-1.816406-.933593-4.300781.765625-5.71875l27.480469-22.527344-22.613281 13.054688c-1.957032 1.320312-4.613282.804687-5.933594-1.152344s-.800781-4.609375 1.152344-5.929687l21.335937-17.066407-16.554687 9.472657c-1.925782 1.101562-4.375.542968-5.632813-1.28125-1.292969-1.828126-.914062-4.347657.851563-5.71875l22.785156-18.261719-18.003906 10.753906c-1.972656 1.09375-4.457032.503906-5.71875-1.367187-1.21875-1.90625-.773438-4.425782 1.023437-5.800782l7.765625-5.804687-3.070312 1.878906c-1.886719 1.414063-4.5625 1.03125-5.976563-.851563-1.414062-1.886718-1.03125-4.5625.855469-5.976562l26.195312-24.832031-21.074218 12.035156c-1.757813 1.078125-4.042969.71875-5.378906-.855469-1.316407-1.582031-1.316407-3.878906 0-5.460937l14.167968-17.066407c-1.988281.851563-4.296875.082032-5.378906-1.792968-.800781-.996094-1.105469-2.304688-.824219-3.550782.285157-1.246093 1.121094-2.296874 2.277344-2.847656l19.539063-11.09375c1.792968-.988281 4.027343-.597656 5.378906.9375 1.316406 1.582032 1.316406 3.878906 0 5.460938l-14.082032 17.066406 32.257813-18.34375c1.882813-1.414062 4.558594-1.03125 5.972656.851562 1.414063 1.886719 1.03125 4.558594-.855469 5.972657l-26.195312 24.746093 32.683594-18.773437c1.96875-1.09375 4.453125-.5 5.714844 1.367187 1.210937 1.878907.761718 4.375-1.023438 5.71875l-7.765625 5.886719 5.886719-3.414062c1.957031-1.320313 4.613281-.804688 5.933594 1.152343 1.320312 1.957032.800781 4.613282-1.152344 5.929688l-22.785156 18.175781 19.113281-11.007812c1.945312-1.15625 4.453125-.59375 5.71875 1.28125 1.238281 1.886719.832031 4.402343-.9375 5.800781l-21.335938 17.070312 16.554688-9.558593c1.925781-1.171875 4.425781-.652344 5.71875 1.195312 1.207031 1.84375.839843 4.300781-.851563 5.714844l-27.480468 22.359375 22.699218-13.140625c1.972656-1.125 4.476563-.511719 5.703125 1.398437 1.226563 1.90625.746094 4.441407-1.09375 5.769532l-5.972656 4.4375 1.363281-.769532c1.898438-1.164062 4.371094-.636718 5.632813 1.195313 1.265625 1.816406.933593 4.300781-.769531 5.714844l-31.230469 26.371093 26.367187-15.191406c1.90625-1.117187 4.347656-.601562 5.632813 1.195313 1.246093 1.804687.953125 4.257812-.683594 5.71875l-32.253906 27.476562 27.390625-15.789062c1.917968-1.144531 4.398437-.582031 5.632812 1.28125 1.203125 1.847656.839844 4.304687-.855468 5.71875l-28.15625 23.296875 23.464843-13.570313c1.957031-1.320312 4.609375-.804687 5.929688 1.152344 1.320312 1.957031.804687 4.613281-1.152344 5.929687l-24.402344 19.628907 19.625-11.351563c1.894531-1.164062 4.371094-.636718 5.632813 1.195313 1.265625 1.816406.933594 4.300781-.769532 5.71875l-29.355468 24.320312 24.492187-14.082031c1.878907-1.109375 4.292969-.589844 5.546875 1.195312 1.285156 1.796876.988282 4.277344-.683594 5.71875l-32.597656 27.816407 27.734375-16.042969c1.945313-1.082031 4.398438-.488281 5.632813 1.367188 1.289062 1.828124.914062 4.347656-.855469 5.71875l-21.84375 17.066406 34.132813-19.800782c1.972656-1.121093 4.476562-.507812 5.703124 1.402344 1.226563 1.90625.746094 4.441406-1.09375 5.765625l-19.542968 14.679688 24.746094-14.421875c1.964843-1.140625 4.480468-.539063 5.71875 1.367187 1.261718 1.894531.8125 4.449219-1.023438 5.800781l-25.601562 18.515626 29.953124-17.066407c1.953126-.933593 4.296876-.257812 5.449219 1.574219 1.15625 1.828125.757813 4.234375-.925781 5.59375l-11.265625 7.765625 13.824219-8.019531c1.972656-1.09375 4.453125-.503906 5.71875 1.363281 1.292968 1.910156.796875 4.507813-1.109375 5.804687l-35.757813 25.597657 40.535156-23.550781c1.964844-1.140626 4.480469-.539063 5.71875 1.367187 1.199219 1.925781.714844 4.453125-1.109374 5.800781l-37.804688 26.964844 42.667969-24.574219c1.980469-1.296875 4.632812-.742187 5.929687 1.238281 1.296875 1.976563.742188 4.632813-1.238281 5.929688l-43.605469 31.742188 49.582032-28.585938c1.96875-1.09375 4.453124-.5 5.714843 1.367188 1.21875 1.90625.773438 4.425781-1.023437 5.800781l-43.433594 31.574219 49.320312-28.417969c1.941407-1.039063 4.359376-.433594 5.574219 1.40625 1.21875 1.835937.835938 4.296875-.878906 5.679687l-40.535156 29.269532 45.996093-26.539063c1.941407-1.042969 4.355469-.433594 5.574219 1.402344 1.214844 1.835937.835938 4.296875-.882812 5.679687l-51.710938 39.082032 59.734375-34.132813c1.964844-1.140625 4.480469-.539063 5.71875 1.363281 1.234375 1.894532.742188 4.425782-1.109375 5.71875l-44.117187 32.339844 47.957031-27.648438c1.957031-1.183593 4.503906-.578124 5.714844 1.367188 1.238281 1.890625.746093 4.425781-1.109375 5.71875l-36.265625 25.597656 35.667969-20.5625c1.972656-1.125 4.476562-.511718 5.703124 1.398438 1.226563 1.90625.746094 4.441406-1.09375 5.769531l-28.074218 19.878906 24.320312-13.992187c1.96875-1.125 4.476563-.511719 5.703125 1.398437 1.226563 1.910157.746094 4.441407-1.097656 5.769531l-19.367187 13.738282 14.761718-8.535156c1.972656-1.09375 4.453125-.5 5.714844 1.367187 1.21875 1.90625.777344 4.429687-1.023438 5.800781l-37.203124 27.992188 32.425781-18.6875c1.972656-1.097656 4.453125-.503906 5.71875 1.363281 1.292969 1.910156.796875 4.503906-1.109375 5.804687l-27.820313 20.050782 23.636719-13.652344c1.980469-1.296875 4.636719-.742188 5.929688 1.238281 1.296874 1.976563.742187 4.632813-1.234376 5.929688l-29.183593 21.417969 24.488281-14.164063c1.972656-1.125 4.476562-.511719 5.703125 1.398437 1.226563 1.910157.746094 4.441407-1.09375 5.769532l-15.277344 11.007812 10.667969-6.144531c1.898438-1.164063 4.371094-.636719 5.632812 1.195313 1.277344 1.84375.945313 4.355468-.769531 5.800781l-21.589843 17.066406 17.070312-9.640625c1.792969-1.113281 4.136719-.710938 5.460938.9375 1.328124 1.609375 1.328124 3.9375 0 5.546875l-15.789063 17.492187 9.558594-5.542968c2.050781-1.152344 4.644531-.425782 5.800781 1.621094.585938.96875.75 2.132812.460938 3.222656-.289063 1.09375-1.007813 2.023437-1.996094 2.578125l-32.085938 18.601562c-1.792968 1.113281-4.136718.710938-5.460937-.9375-1.328125-1.609375-1.328125-3.9375 0-5.546875l14.933593-17.066406-40.53125 23.550781c-.632812.414063-1.378906.625-2.132812.597657zm0 0" fill="#efc7a4" fill-rule="evenodd"/><path d="m358.777344 505.085938c-1.75-.019532-3.3125-1.113282-3.933594-2.753907-.621094-1.636719-.179688-3.488281 1.121094-4.667969l20.136718-17.75-42.667968 24.40625c-1.96875 1.09375-4.453125.5-5.714844-1.367187-1.210938-1.878906-.761719-4.375 1.023438-5.71875l54.015624-40.789063-63.828124 36.78125c-1.984376 1.195313-4.5625.589844-5.804688-1.367187-1.226562-1.941406-.699219-4.503906 1.195312-5.800781l75.007813-51.199219-71.933594 41.46875c-1.984375.996094-4.398437.304687-5.554687-1.585937-1.15625-1.890626-.671875-4.355469 1.117187-5.664063l54.613281-35.671875-50.175781 29.015625c-1.984375.992187-4.398437.300781-5.554687-1.589844s-.671875-4.351562 1.117187-5.664062l45.90625-29.78125-41.042969 24.488281c-2.007812 1.179688-4.589843.535156-5.804687-1.449219-1.203125-2.011719-.601563-4.613281 1.367187-5.886719l19.882813-12.546874-15.445313 8.535156c-2.003906 1.25-4.640624.636718-5.890624-1.367188-1.246094-2-.636719-4.636718 1.367187-5.886718l85.332031-57.769532-81.152344 46.847656c-1.980468.992188-4.394531.304688-5.550781-1.589843-1.15625-1.890625-.671875-4.351563 1.113281-5.664063l3.585938-2.304687c-1.839844.601562-3.855469-.140625-4.863281-1.792969-1.230469-1.9375-.703125-4.503906 1.195312-5.800781l90.453125-61.441407-85.589844 49.578126c-1.984374.996093-4.394531.304687-5.550781-1.585938-1.160156-1.890625-.675781-4.355469 1.113281-5.664062l56.574219-36.609376-52.050781 30.035157c-2.015625 1.132812-4.5625.496093-5.804688-1.449219-1.195312-1.984375-.589843-4.558594 1.367188-5.800781l59.730469-39.085938-51.199219 29.527344c-1.980469 1.171875-4.535156.523437-5.714844-1.449219-1.214844-1.964844-.648437-4.535156 1.277344-5.804687l60.585938-40.105469-30.207032 17.066406c-2.027344 1.226563-4.664062.574219-5.886718-1.453125-1.226563-2.023437-.578126-4.660156 1.449218-5.886719l33.367188-21.757812c-1.558594.15625-3.074219-.566406-3.925782-1.878906-1.265624-1.816406-.933593-4.300782.765626-5.71875l29.015624-23.039063c-.582031-.96875-.75-2.132812-.460937-3.226562s1.011719-2.023438 1.996094-2.574219l20.90625-12.035156c1.917969-.996094 4.277343-.40625 5.496093 1.378906s.910157 4.199219-.71875 5.621094l-8.53125 6.65625 79.1875-45.65625c1.984376-.992188 4.394532-.300782 5.554688 1.589844 1.15625 1.890624.671875 4.351562-1.117188 5.664062l-27.476562 18.007812 23.554688-13.570312c1.980468-.992188 4.394531-.300781 5.550781 1.589844s.671875 4.351562-1.117188 5.664062l-60.671875 39.9375 56.238282-32.429687c1.980468-.992188 4.394531-.300781 5.550781 1.589843 1.15625 1.890626.671875 4.351563-1.117188 5.664063l-59.730469 39 54.953126-31.402344c1.984374-.996093 4.394531-.304687 5.550781 1.585938 1.160156 1.890625.675781 4.355469-1.113281 5.664062l-56.660157 36.609375 52.222657-30.207031c2.003906-1.25 4.640624-.636719 5.886718 1.363281 1.25 2.003906.640625 4.640625-1.363281 5.890625l-90.539063 61.4375 86.015626-49.578125c1.984374-.992187 4.394531-.304687 5.550781 1.589844 1.160156 1.890625.675781 4.351562-1.113281 5.664062l-3.582032 2.21875c1.859375-.550781 3.855469.21875 4.863282 1.878907 1.226562 1.9375.699218 4.503906-1.195313 5.800781l-85.332031 57.769531 81.152344-46.847656c1.980468-.992187 4.394531-.300781 5.550781 1.589844s.671875 4.351562-1.117188 5.664062l-19.878906 12.628907 15.445313-8.53125c1.980468-.996094 4.394531-.304688 5.550781 1.585937s.671875 4.355469-1.117188 5.667969l-45.90625 29.695312 39.847657-22.957031c1.980468-1.171875 4.539062-.523437 5.71875 1.453125 1.210937 1.960938.644531 4.53125-1.28125 5.800781l-54.695313 35.671875 35.070313-20.226562c1.988281-1.121094 4.507812-.484375 5.71875 1.453125 1.226562 1.9375.699218 4.503906-1.195313 5.800781l-74.921875 51.199219 25.597656-14.503907c1.972656-1.097656 4.453125-.503906 5.71875 1.363282 1.207032 1.878906.761719 4.375-1.023437 5.71875l-54.015625 40.789062 19.113281-11.777344c1.902344-1.117187 4.347656-.601562 5.632813 1.195313 1.320312 1.757813 1.015624 4.242187-.683594 5.632813l-20.308594 17.578124 13.226562-7.679687c1.828126-1.015625 4.125-.585937 5.460938 1.023437 1.367188 1.597657 1.367188 3.949219 0 5.546876l-7.9375 8.53125 2.21875-1.191407c1.316406-.960937 3.066406-1.082031 4.503906-.324219 1.441406.761719 2.320313 2.277344 2.269532 3.90625-.050782 1.628907-1.023438 3.085938-2.503907 3.753907l-26.625 15.445312c-1.808593 1.136719-4.1875.691407-5.460937-1.023437-1.402344-1.582032-1.402344-3.964844 0-5.546875l7.847656-8.53125-26.023438 15.101562c-.636718.40625-1.378906.613281-2.136718.597657zm0 0" fill="#efc7a4" fill-rule="evenodd"/><path d="m434.898438 247.976562c-1.410157.003907-2.726563-.703124-3.5-1.875-1.257813-1.867187-.886719-4.378906.851562-5.804687l18.6875-14.421875-13.90625 7.9375c-1.898438 1.164062-4.371094.636719-5.632812-1.195312-1.277344-1.84375-.945313-4.355469.765624-5.800782l26.539063-21.589844-21.417969 12.542969c-1.929687 1.195313-4.457031.675781-5.753906-1.191406-1.292969-1.863281-.902344-4.414063.890625-5.804687l26.367187-21.503907-21.503906 12.457031c-1.902344 1.121094-4.347656.601563-5.632812-1.195312-1.265625-1.816406-.929688-4.296875.769531-5.714844l29.867187-25.003906-25.003906 14.421875c-1.929687 1.195313-4.457031.671875-5.753906-1.191406-1.292969-1.863281-.902344-4.414063.890625-5.808594l29.867187-24.914063-25.003906 14.417969c-1.902344 1.121094-4.347656.601563-5.632812-1.191406-1.296875-1.824219-1-4.332031.683594-5.804687l32.769531-28.074219-27.820313 16.128906c-1.929687 1.058594-4.347656.507813-5.632812-1.28125-1.265625-1.816406-.929688-4.300781.769531-5.714844l28.671875-23.722656-23.808594 13.738281c-1.953125 1.316406-4.609375.800782-5.929687-1.152344-1.320313-1.957031-.804688-4.613281 1.152343-5.933593l13.910157-11.007813-9.132813 5.292969c-1.925781 1.101563-4.371094.542969-5.632812-1.28125-1.289063-1.828125-.914063-4.347656.855468-5.71875l6.910157-5.542969-2.132813 1.277344c-1.789062.988281-4.027344.597656-5.375-.9375-1.238281-1.578125-1.238281-3.796875 0-5.375l14.078125-18.09375c-2.054687 1.105469-4.613281.390625-5.800781-1.621094-.789062-.957031-1.113281-2.214844-.882812-3.4375.230468-1.21875.992187-2.273437 2.078124-2.875l19.113282-10.753906c1.769531-1.078125 4.058594-.726562 5.425781.828125 1.367187 1.558594 1.417969 3.871094.121094 5.488281l-14.078125 18.089844 33.535156-19.457031c1.972656-1.09375 4.453125-.5 5.714844 1.367187 1.230468 1.859375.820312 4.347656-.9375 5.71875l-6.910156 5.460938 9.472656-5.378906c1.914062-1.144532 4.394531-.582032 5.628906 1.28125 1.246094 1.835937.875 4.324218-.851562 5.71875l-13.910157 11.007812 14.59375-8.535156c1.898438-1.089844 4.316407-.53125 5.546875 1.28125 1.285156 1.792968.988282 4.273437-.683594 5.71875l-28.757812 24.234375 26.453125-15.191407c1.894531-.972656 4.214844-.402343 5.441406 1.339844 1.222657 1.742188.976563 4.117188-.578125 5.574219l-32.683594 28.074219 27.820313-16.128906c1.929687-1.058594 4.347656-.511719 5.632813 1.28125 1.265624 1.816406.933593 4.296874-.769532 5.714843l-29.867187 24.917969 25.003906-14.421875c1.929687-1.058594 4.347656-.507813 5.632813 1.28125 1.265624 1.816406.933593 4.300781-.769532 5.71875l-29.867187 24.914063 25.003906-14.417969c1.929687-1.0625 4.347656-.511719 5.632813 1.277343 1.265624 1.816407.933593 4.300782-.769532 5.71875l-26.453125 21.503907 21.589844-12.460938c1.929687-1.058593 4.347656-.507812 5.632813 1.28125 1.265624 1.816407.933593 4.300781-.769532 5.71875l-26.625 21.671875 21.675782-12.542968c1.957031-1.320313 4.613281-.804688 5.929687 1.152343 1.320313 1.957031.804687 4.613281-1.152344 5.929688l-18.6875 14.507812 13.910157-8.019531c1.316406-.960938 3.066406-1.082031 4.503906-.324219 1.441406.761719 2.320312 2.277344 2.269531 3.90625-.050781 1.628907-1.023437 3.085938-2.507813 3.753907l-67.753906 39.167968c-.726562.410156-1.554687.617188-2.386718.597656zm0 0" fill="#efc7a4" fill-rule="evenodd"/><g fill="#262626"><path d="m381.308594 228.007812c2.386718-39.933593 0-80.722656 0-120.746093 0-23.890625 9.386718-70.398438-5.121094-91.730469-15.785156-23.382812-70.65625-12.714844-93.441406-12.714844h-116.820313c-1.039062-.246094-2.117187-.246094-3.15625 0-28.246093 5.628906-32.683593 22.101563-32.683593 48.125v134.402344c0 22.953125-9.046876 66.132812 17.066406 78.078125 23.636718 10.667969 64.511718 2.304687 89.257812 2.304687 39.9375-.253906 141.484375 22.015626 144.898438-37.71875zm-89.089844-217.425781c3.839844 16.210938 0 38.140625 0 54.78125 0 2.902344-1.109375 48.042969-1.875 47.703125-9.816406-7.851562-21.503906-22.527344-35.160156-20.480468-6.058594 1.234374-11.632813 4.199218-16.042969 8.53125-4.046875 4.171874-8.605469 7.8125-13.566406 10.839843-5.460938 1.960938-5.035157 3.070313-6.398438-5.972656-1.195312-17.558594-1.195312-35.179687 0-52.738281v-43.773438h72.789063s.082031.59375.253906 1.109375zm-101.632812 248.234375c-27.390626 0-45.652344-3.585937-48.210938-34.648437-2.902344-35.753907 0-72.875 0-108.714844 0-19.285156-12.460938-99.242187 18.261719-105.980469h46.25v47.359375c0 15.699219-4.265625 37.972657 0 53.160157 4.265625 15.191406 20.648437 8.023437 29.867187 1.28125 4.277344-4.039063 8.808594-7.800782 13.566406-11.265626 6.484376-3.667968 1.792969-2.730468 6.144532-.9375 8.109375 5.0625 15.5625 11.109376 22.1875 18.007813.410156.269531.875.445313 1.363281.511719 23.554687 8.53125 24.492187-15.363282 24.492187-32v-76.117188h24.574219c10.496094 0 24.40625-1.707031 32.855469 6.484375 8.445312 8.191407 6.398438 21.84375 7.082031 32.597657 1.960938 34.132812 0 69.714843 0 104.277343 0 24.746094 5.972657 58.28125 0 82.429688-8.535156 34.132812-48.382812 23.554687-74.496093 23.554687zm0 0"/><path d="m202.105469 383.828125c-1.191407-40.875-31.914063-60.5-59.730469-87.296875-16.386719-15.957031-34.132812-28.160156-51.199219-42.664062-10.753906-9.304688-6.828125-6.058594-8.535156-19.203126-.339844-4.742187-.339844-9.503906 0-14.25 0-41.300781 13.996094-110.933593-9.984375-146.429687-29.441406-20.140625-65.878906-6.488281-70.570312 30.035156-4.691407 36.523438 0 74.496094 0 110.167969 0 40.789062-3.667969 83.453125 0 124.074219 3.242187 37.289062 41.558593 61.949219 66.816406 86.441406 15.695312 13.085937 25.371094 32.007813 26.792968 52.394531 1.964844 18.515625 4.269532 22.613282 22.445313 26.28125 17.066406 3.5 68.863281 7.679688 81.320313-11.605468 5.804687-9.042969 2.644531-27.21875 2.644531-36.777344 0-23.636719.769531-47.785156 0-71.167969zm-12.285157 101.035156c-7.511718 19.882813-9.898437 11.859375-24.917968 13.910157-17.664063 2.304687-49.492188 4.4375-56.832032-16.386719-6.398437-17.832031 1.023438-30.378907-13.398437-48.125-18.859375-23.296875-45.652344-40.109375-65.023437-63.0625-19.371094-22.953125-15.273438-51.199219-15.273438-79.957031v-173.3125c0-16.042969-3.585938-74.070313 46.078125-40.191407 17.835937 26.964844 9.898437 69.460938 9.898437 100.351563v76.800781c-21.929687 6.226563-40.53125 25.597656-29.4375 50.34375 7.25 16.128906 26.023438 29.355469 38.3125 41.558594 2.21875 2.304687 13.570313-2.21875 11.605469-4.179688-8.53125-8.535156-17.835937-17.578125-26.539062-26.539062-5.738281-5.046875-10.085938-11.484375-12.628907-18.6875-4.523437-15.703125 3.5-36.695313 21.761719-39.253907 33.109375 4.605469 64.167969 49.152344 86.269531 70.65625 25.601563 25.085938 30.125 43.433594 30.125 78.078126 0 20.394531 1.707032 41.558593 0 61.78125.585938 5.390624.585938 10.824218 0 16.214843zm0 0"/><path d="m509.308594 106.324219c-2.304688-40.019531-44.886719-59.734375-72.960938-27.050781-.042968.195312-.042968.402343 0 .597656-18.003906 33.449218-7.082031 88.660156-7.082031 125.183594.894531 11.957031.894531 23.96875 0 35.925781-2.132813 13.140625 0 7.339843-5.460937 12.886719-2.304688 2.472656-17.066407 9.042968-19.714844 11.175781-29.757813 23.0625-56.886719 49.335937-80.894532 78.335937-24.832031 29.699219-13.910156 82.945313-13.910156 118.53125 0 12.96875-3.582031 30.972656 9.214844 39.335938 12.800781 8.363281 37.035156 2.988281 49.496094 2.988281 10.324218 0 27.304687 2.386719 36.863281-4.011719 17.066406-11.347656 7.339844-28.929687 12.375-45.484375 12.199219-40.191406 66.046875-57.769531 85.929687-93.863281 14.675782-26.285156 6.144532-71.851562 6.144532-100.183594 0-50.859375 3.070312-103.167968 0-154.367187zm-26.625 266.238281c-18.945313 23.210938-45.910156 39.851562-65.023438 63.0625-11.691406 14.164062-10.242187 25.601562-14.335937 41.472656-6.484375 26.28125-19.371094 20.820313-42.667969 20.820313-20.566406 0-33.195312.597656-39.339844-22.269531-3.667968-13.824219 0-34.136719 0-48.300782 0-38.398437-3.667968-65.875 24.320313-95.402344 19.285156-20.308593 54.785156-68.265624 85.335937-73.128906h.851563c32.339843 4.007813 34.132812 38.484375 15.359375 57.855469-8.53125 9.042969-17.664063 17.75-26.453125 26.539063-5.203125 5.203124 6.914062 5.375 9.898437 2.300781 12.800782-11.6875 28.074219-23.636719 37.121094-37.628907 15.359375-24.492187-1.535156-50.175781-26.710938-55.46875v-73.554687c0-30.039063-7.507812-72.363281 6.742188-99.757813 32.683594-6.398437 49.066406 1.707032 49.238281 24.492188v1.535156c.296875 3.890625.296875 7.800782 0 11.691406.511719 16.128907 0 32.339844 0 48.554688v122.367188c0 29.269531 5.460938 60.503906-14.335937 84.820312zm0 0"/><path d="m347.175781 226.386719v-17.066407c0-2.132812-12.289062 0-12.289062 3.242188v17.070312c0 2.132813 12.289062.339844 12.289062-3.246093zm0 0" fill-rule="evenodd"/><path d="m300.667969 211.710938v17.066406c0 5.289062 12.457031 2.730468 12.457031-1.535156v-17.066407c0-5.292969-12.457031-2.730469-12.457031 1.535157zm0 0" fill-rule="evenodd"/><path d="m208.507812 225.535156h-34.132812c-3.019531-.167968-6.011719.640625-8.535156 2.304688-1.449219 1.277344-2.132813 2.644531.683594 2.644531h34.132812c3.019531.167969 6.011719-.640625 8.535156-2.304687 1.449219-1.28125 2.132813-2.644532-.683594-2.644532zm0 0" fill-rule="evenodd"/><path d="m181.199219 171.261719v23.210937c0 5.972656 12.460937 3.839844 12.460937-1.195312v-21.84375c4.265625 0 10.152344-3.328125 8.105469-5.460938l-8.53125-8.535156c-1.625-3.496094-8.535156-1.535156-11.011719.683594l-8.53125 8.535156c-4.179687 4.4375 2.816406 5.972656 7.507813 4.605469zm0 0" fill-rule="evenodd"/></g></svg>