<svg height="502pt" viewBox="0 -3 502.56416 502" width="502pt" xmlns="http://www.w3.org/2000/svg"><path d="m49.570312 495.328125c-1.914062.058594-3.625-1.1875-4.160156-3.023437-.53125-1.839844.246094-3.808594 1.894532-4.78125l57.746093-35.507813-70.253906 40.878906c-1 .664063-2.230469.878907-3.394531.589844-1.164063-.285156-2.15625-1.046875-2.730469-2.101563-.582031-.941406-.757813-2.078124-.488281-3.152343.265625-1.074219.957031-1.996094 1.914062-2.554688l86.117188-53.046875-92.832032 53.464844c-1.910156.976562-4.25.316406-5.371093-1.507812-1.175781-1.953126-.582031-4.488282 1.34375-5.710938l145.035156-91.066406-149.652344 86.789062c-1.988281 1.132813-4.519531.460938-5.6875-1.507812s-.542969-4.511719 1.40625-5.710938l129.761719-80.664062-128.25 73.613281c-1.949219.976563-4.324219.296875-5.460938-1.5625-1.140624-1.859375-.664062-4.28125 1.09375-5.574219l171.226563-108.273437-166.859375 96.105469c-2.003906 1.097656-4.511719.433593-5.707031-1.511719-.582031-.941407-.757813-2.082031-.488281-3.15625.265624-1.074219.957031-1.992188 1.914062-2.550781l117.003906-72.855469-112.722656 65.300781c-1.972656 1.160156-4.515625.527344-5.707031-1.425781-.582031-.945313-.757813-2.082031-.488281-3.15625.265624-1.074219.957031-1.992188 1.914062-2.550781l106.175781-66.140626-101.894531 58.753907c-1.996094 1.203125-4.585938.566406-5.792969-1.429688-1.203125-1.992187-.566406-4.585937 1.425781-5.789062l150.496094-96.105469-146.128906 83.933594c-1.972656 1.160156-4.515625.527344-5.707031-1.425782-1.1875-1.976562-.59375-4.539062 1.339843-5.792968l106.011719-66.558594-101.644531 58.753906c-1.996094 1.203125-4.585938.566406-5.792969-1.425781-1.203125-1.996094-.566406-4.585937 1.425781-5.792969l139.585938-89.304687-135.21875 78.058593c-2.066406 1.054688-4.597656.273438-5.707031-1.765624-.582031-.941407-.757813-2.078126-.488281-3.152344.265624-1.074219.957031-1.996094 1.914062-2.554688l64.964844-40.457031-60.683594 35.253906c-1.949219.976563-4.324219.300781-5.460938-1.5625-1.140624-1.859375-.664062-4.28125 1.09375-5.570312l88.300782-55.648438-83.933594 48.511719c-1.949219.976562-4.324219.300781-5.460938-1.558594-1.140624-1.863281-.664062-4.285156 1.09375-5.574218l121.371094-78.3125-117.003906 67.148437c-1.832031.613281-3.847656-.101563-4.878906-1.730469-1.035156-1.632812-.824219-3.757812.511718-5.152344l58.753907-36.679687-54.386719 31.308594c-1.949219.976562-4.324219.296875-5.460938-1.5625-1.140624-1.859375-.664062-4.28125 1.09375-5.570313l117.507813-76.71875-113.140625 65.132813c-1.972656 1.230469-4.5625.628906-5.792969-1.339844-1.226562-1.972656-.628906-4.566406 1.34375-5.792969l94.425781-62.53125-89.976562 51.789063c-1.972656 1.226562-4.5625.625-5.792969-1.34375-1.226562-1.972657-.628906-4.5625 1.34375-5.792969l70.503907-46.582031-66.054688 38.441406c-1.972656 1.226563-4.5625.625-5.792969-1.34375-1.226562-1.96875-.628906-4.5625 1.34375-5.792969l47.84375-31.640625-43.394531 25.179688c-1.933594 1.121093-4.40625.53125-5.625-1.34375-.601562-.910157-.816406-2.027344-.597656-3.097657.21875-1.070312.859375-2.007812 1.773437-2.609374l48.429688-33.574219-43.980469 25.179687c-1.925781 1.167969-4.433594.570313-5.625-1.34375-1.179688-1.894531-.707031-4.378906 1.089844-5.707031l41.214844-29.796875-36.679688 21.40625c-1.925781 1.296875-4.535156.789062-5.835938-1.132812-1.296874-1.925782-.789062-4.539063 1.132813-5.835938l33.574219-26.859375-29.125 16.789063c-1.96875 1.25-4.582032.667968-5.832032-1.300782-1.253906-1.972656-.667968-4.582031 1.300782-5.835937l18.046875-15.359375-12.84375 7.386718c-1.605469 1.242188-3.894531 1.0625-5.289063-.417968-1.378906-1.558594-1.378906-3.902344 0-5.457032l10.410156-11.332031c-1.398437-.09375-2.660156-.882812-3.359374-2.097656-.574219-.953125-.734376-2.097656-.449219-3.171875.28125-1.078125.992187-1.992188 1.960937-2.535156l19.136719-11.414063c1.792969-1.042969 4.078125-.621093 5.378906.996094 1.300781 1.613281 1.226563 3.9375-.175781 5.464844l-8.390625 9.570312 29.375-16.789062c1.867187-1.144531 4.300781-.628907 5.539063 1.175781 1.226562 1.777344.9375 4.1875-.671876 5.625l-18.042968 15.191406 38.441406-22.242187c1.921875-1.300781 4.535156-.792969 5.832031 1.132812 1.296875 1.921875.792969 4.535157-1.132812 5.832031l-33.574219 26.859376 58.753906-33.574219c1.941406-1.078125 4.382813-.492188 5.625 1.34375 1.273438 1.878906.785156 4.429687-1.089844 5.707031l-41.800781 29.714844 63.957031-36.847656c1.921876-.921876 4.226563-.253907 5.363282 1.542968 1.136718 1.800782.742187 4.167969-.914063 5.507813l-48.429687 33.574219 70.253906-40.792969c1.273438-.796875 2.875-.851563 4.199219-.144531 1.328125.707031 2.175781 2.066406 2.226562 3.566406.050781 1.503906-.703125 2.917968-1.976562 3.710937l-47.761719 31.644531 67.148438-38.777343c1.949218-.976563 4.324218-.300781 5.460937 1.5625 1.136719 1.859375.660156 4.28125-1.097656 5.570312l-70.167969 46.667969 93.167969-53.800781c1.953125-1.105469 4.433593-.476563 5.625 1.425781.59375.921875.796875 2.042969.558593 3.117188-.234374 1.070312-.890624 2.003906-1.820312 2.589843l-95.097656 62.449219 120.699218-69.667969c1.972657-1.160156 4.511719-.523437 5.707032 1.429688 1.148437 1.9375.597656 4.429687-1.257813 5.707031l-117.507812 76.714844 128.417969-73.945313c1.972656-1.160156 4.511718-.527343 5.707031 1.425781.585937.957032.761719 2.105469.496093 3.195313-.269531 1.085937-.960937 2.019531-1.921874 2.597656l-58.839844 36.761719 60.015625-34.664062c1.949219-.976563 4.320312-.300782 5.460937 1.5625 1.136719 1.859374.660156 4.28125-1.097656 5.570312l-121.117188 78.3125 125.902344-72.605469c1.992188-1.203125 4.585938-.566406 5.789063 1.429688 1.207031 1.992187.566406 4.585937-1.425781 5.789062l-88.550782 55.648438 91.40625-52.792969c.9375-.570312 2.070313-.730469 3.132813-.445312 1.0625.285156 1.960937.992187 2.488281 1.957031.589844.929687.777344 2.058593.527344 3.132812-.253906 1.074219-.925782 2-1.867188 2.574219l-64.882812 40.371094 67.148437-38.863282c1.949219-.976562 4.320313-.296874 5.460938 1.5625 1.136719 1.859376.660156 4.28125-1.097657 5.574219l-139.414062 89.808594 146.128906-83.933594c1.988282-1.132812 4.519532-.464843 5.6875 1.503907 1.167969 1.972656.542969 4.511718-1.40625 5.714843l-105.84375 66.054688 111.046875-64.125c1.976563-1.089844 4.460938-.421875 5.625 1.511719 1.144531 1.9375.59375 4.433593-1.261719 5.707031l-150.578124 96.273437 159.476562-92.328125c1.992188-1.207031 4.585938-.566406 5.792969 1.425781 1.203125 1.992188.566406 4.585938-1.429688 5.792969l-106.34375 66.390625 113.898438-65.804687c.953125-.574219 2.097656-.734375 3.175781-.453125 1.074219.285156 1.988281.996094 2.53125 1.964844 1.175781 1.953124.582031 4.484374-1.339844 5.707031l-117.007812 72.773437 128.085937-73.863281c1.949219-1.152344 4.460938-.515625 5.625 1.425781 1.175781 1.953125.578125 4.484375-1.34375 5.707032l-171.226562 108.109374 171.5625-99.042968c1.988281-1.132813 4.519531-.464844 5.6875 1.503906s.539062 4.511719-1.40625 5.714844l-129.597657 80.574218 125.316407-72.351562c1.972656-1.160156 4.511719-.523438 5.707031 1.429688 1.183594 1.976562.589844 4.535156-1.34375 5.789062l-145.457031 91.320312 141.09375-81.5c1.988281-1.132812 4.519531-.460937 5.6875 1.507813s.539062 4.511719-1.40625 5.710937l-85.867188 53.132813 81.753907-47.171875c1.972656-1.160156 4.511718-.527344 5.707031 1.425781 1.167969 2 .535156 4.566407-1.429688 5.792969l-57.660156 35.417969 53.382813-30.800781c1.992187-1.207032 4.585937-.566407 5.789062 1.425781 1.207031 1.992187.566406 4.585937-1.425781 5.789062l-122.375 78.0625 118.011719-68.15625c1.949218-.976562 4.320312-.296875 5.460937 1.5625 1.136719 1.859375.660156 4.28125-1.097656 5.570313l-118.597657 77.054687 114.066407-65.890625c1.289062-.777344 2.894531-.8125 4.214843-.085937 1.320313.726562 2.152344 2.105469 2.183594 3.609375.03125 1.507812-.746094 2.914062-2.035156 3.695312l-95.015625 62.113282 90.652344-52.375c1.289062-.78125 2.894531-.8125 4.214843-.085938 1.320313.726562 2.152344 2.101562 2.183594 3.609375.03125 1.503906-.746094 2.914063-2.035156 3.691406l-54.304688 35.003907 49.941407-28.875c1.972656-1.160157 4.511719-.527344 5.707031 1.425781 1.144531 1.9375.59375 4.433593-1.261719 5.707031l-53.464843 35.085938 49.019531-28.285157c1.976562-1.113281 4.484375-.488281 5.707031 1.425781 1.144531 1.9375.59375 4.433594-1.261719 5.707032l-39.613281 26.273437 35.167969-20.3125c1.976562-1.113281 4.484375-.488281 5.707031 1.425781 1.144531 1.9375.59375 4.433594-1.261719 5.707032l-26.4375 17.796875 21.992188-12.757813c1.9375-1.078125 4.378906-.496094 5.621093 1.339844 1.273438 1.878906.785157 4.433594-1.089843 5.710938l-31.644531 22.410156 27.113281-15.699219c1.878906-1.171875 4.351562-.609375 5.539062 1.261719 1.269531 1.796875.898438 4.273437-.839843 5.621094l-33.574219 26.355468 28.453125-16.785156c1.941406-1.078125 4.382812-.496094 5.625 1.34375 1.199218 1.875.761718 4.355469-1.007813 5.707031l-3.441406 2.519531c1.660156-.355468 3.371094.300782 4.363281 1.675782 1.246094 1.789062.917969 4.230468-.753906 5.625l-4.867188 4.027344c1.6875-.175782 3.324219.644531 4.195313 2.097656.574219.953125.738281 2.101562.453125 3.175781s-.992188 1.988281-1.964844 2.535156l-40.121094 23.75c-1.882812 1.128907-4.324218.574219-5.539062-1.257812-1.246094-1.785157-.917969-4.226563.757812-5.621094l3.523438-2.855469-17.207031 9.734375c-1.925781 1.167969-4.433594.570313-5.621094-1.339843-1.191406-1.851563-.75-4.304688 1.003906-5.625l2.183594-1.59375-14.351563 8.558593c-1.886718.984375-4.207031.402344-5.40625-1.351562-1.199218-1.757813-.894531-4.132813.707032-5.527344l33.570312-26.355469-57.578125 33.570313c-1.933593 1.121093-4.40625.53125-5.621093-1.339844-1.226563-1.890625-.746094-4.40625 1.089843-5.707031l31.644531-22.328125-50.867187 29.375c-1.96875 1.230469-4.5625.628906-5.789063-1.339844-1.230468-1.972656-.628906-4.566406 1.339844-5.792969l26.523438-17.710937-43.140625 25.179687c-1.96875 1.230469-4.5625.628906-5.792969-1.339844-1.226562-1.972656-.625-4.566406 1.34375-5.792968l39.535156-26.1875-57.75 33.574218c-1.972656 1.160157-4.511718.523438-5.707031-1.425781-1.144531-1.9375-.59375-4.433593 1.261719-5.710937l53.382812-35.082032-73.109375 41.964844c-1.972656 1.164063-4.511719.527344-5.707031-1.425781-1.144531-1.9375-.597656-4.433594 1.257812-5.707031l54.222657-34.917969-72.855469 41.96875c-1.972656 1.160156-4.511719.527344-5.707031-1.425781-1.144531-1.9375-.597657-4.433594 1.257812-5.710938l95.015625-62.109375-120.699218 68.65625c-1.949219.980469-4.320313.300781-5.460938-1.558593-1.136719-1.863282-.660156-4.285157 1.097656-5.574219l118.429688-77.050781-145.875 84.183593c-1.277344.796875-2.878906.851563-4.203125.144531-1.324219-.707031-2.171875-2.066406-2.222657-3.566406-.050781-1.5.703126-2.914062 1.976563-3.710937l122.542969-78.144531-147.722656 85.277343c-.609376.375-1.304688.578125-2.015626.589844zm0 0" fill="#fab153" fill-rule="evenodd"/><path d="m222.894531 289.4375c-1.074219-.019531-2.113281-.402344-2.9375-1.09375-1.347656-1.28125-1.6875-3.296875-.839843-4.949219l7.136718-14.605469-15.109375 8.394532c-1.832031 1.054687-4.160156.585937-5.4375-1.097656-1.28125-1.683594-1.109375-4.054688.402344-5.535157l4.53125-4.617187-7.636719 4.449218c-1.792968 1.042969-4.078125.621094-5.378906-.996093-1.300781-1.613281-1.226562-3.9375.171875-5.464844l16.367187-17.796875-24.421874 14.4375c-1.296876.941406-3.015626 1.066406-4.433594.316406-1.414063-.75-2.28125-2.238281-2.230469-3.839844.050781-1.601562 1.007813-3.035156 2.464844-3.695312l48.347656-27.949219c1.800781-1 4.054687-.578125 5.371094 1.007813 1.378906 1.554687 1.378906 3.898437 0 5.457031l-16.785157 17.792969 11.246094-6.464844c1.832032-1.054688 4.160156-.585938 5.4375 1.097656s1.105469 4.054688-.402344 5.535156l-4.617187 4.617188c1.542969-.675781 3.335937-.34375 4.535156.835938 1.359375 1.234374 1.734375 3.222656.921875 4.871093l-7.132812 14.601563 1.257812-.753906c2.015625-1.160157 4.589844-.464844 5.75 1.554687 1.15625 2.015625.460938 4.589844-1.554687 5.75l-13.09375 7.550781c-.582031.359375-1.246094.5625-1.929688.589844zm0 0" fill="#ffd67b" fill-rule="evenodd"/><path d="m136.023438 286.75c-1.421876-.015625-2.746094-.742188-3.527344-1.929688-1.179688-1.894531-.703125-4.382812 1.09375-5.707031l23.753906-16.789062-19.476562 11.25c-1.9375 1.105469-4.402344.5-5.609376-1.378907-1.203124-1.875-.730468-4.367187 1.078126-5.671874l35.757812-26.105469-31.476562 18.128906c-1.925782 1.167969-4.433594.570313-5.625-1.339844-1.1875-1.851562-.75-4.304687 1.007812-5.625l41.96875-31.054687-37.183594 21.484375c-1.9375 1.078125-4.378906.496093-5.625-1.339844-1.269531-1.878906-.78125-4.433594 1.09375-5.707031l24.507813-17.292969-19.976563 11.5c-1.925781 1.167969-4.433594.570313-5.625-1.34375-1.269531-1.878906-.78125-4.429687 1.09375-5.707031l21.570313-15.109375-16.789063 9.820312c-1.910156 1.136719-4.378906.585938-5.621094-1.257812-1.199218-1.875-.761718-4.355469 1.007813-5.707031l41.964844-31.222657-37.433594 21.570313c-1.9375 1.078125-4.378906.492187-5.625-1.34375-1.269531-1.878906-.78125-4.429688 1.09375-5.707032l10.492187-7.46875-5.878906 3.441407c-1.847656 1.074219-4.210937.582031-5.484375-1.140625-1.269531-1.722656-1.039062-4.125.535157-5.574219l22.746093-20.984375-17.796875 10.238281c-1.847656 1.074219-4.210937.585938-5.484375-1.136719-1.269531-1.722656-1.039062-4.125.535157-5.578124l4.027343-3.691407c-1.269531.367188-2.636719.121094-3.691406-.671875-1.3125-1-1.933594-2.667968-1.597656-4.28125l2.519531-10.910156c-1.457031-.621094-2.441406-2.003906-2.546875-3.582031s.683594-3.082031 2.042969-3.890625l4.195312-2.433594c1.402344-.921875 3.21875-.921875 4.617188 0 1.3125 1 1.933594 2.667969 1.597656 4.28125l-2.015625 8.394531 23.164063-13.347656c1.835937-1.066406 4.175781-.597656 5.457031 1.09375 1.230469 1.742187 1.015625 4.125-.503907 5.621094l-3.609374 3.273437 17.457031-10.070312c1.847656-1.089844 4.222656-.578125 5.457031 1.175781 1.257812 1.707031 1.039062 4.085937-.503906 5.539063l-22.746094 20.984374 48.09375-27.785156c1.957031-1.105468 4.433594-.476562 5.625 1.429688.605469.886718.832031 1.980468.628906 3.039062-.207031 1.054688-.824218 1.984375-1.71875 2.582032l-10.324218 7.472656 25.179687-14.523438c1.925781-1.167968 4.433594-.566406 5.621094 1.34375 1.191406 1.847656.75 4.300782-1.003907 5.625l-41.96875 31.308594 37.6875-21.742188c1.925782-1.167968 4.433594-.566406 5.621094 1.34375 1.273438 1.878907.785156 4.433594-1.089844 5.707032l-21.570312 15.023437 16.785156-9.820312c1.957032-1.105469 4.433594-.476563 5.625 1.429687.605469.886719.832032 1.980469.628906 3.039063-.207031 1.054687-.824218 1.984375-1.71875 2.582031l-24.59375 17.878906 19.976563-11.5c1.9375-1.074218 4.378906-.492187 5.621094 1.34375 1.191406 1.851563.75 4.304688-1.003907 5.625l-41.96875 31.054688 37.183594-21.488282c1.9375-1.074218 4.378906-.492187 5.625 1.34375 1.195313 1.875.757813 4.355469-1.007812 5.707032l-35.671875 26.273437 31.472656-18.214843c1.941406-1.078126 4.382813-.492188 5.625 1.34375 1.273437 1.878906.785156 4.429687-1.089844 5.707031l-23.753906 16.785156 19.21875-11.160156c2.019531-1.160157 4.59375-.464844 5.75 1.550781 1.160156 2.015625.464844 4.589844-1.550781 5.75l-100.21875 57.664062c-.625.398438-1.355469.601563-2.097656.585938zm0 0" fill="#ffd67b" fill-rule="evenodd"/><path d="m393.953125 242.011719c-1.386719.003906-2.679687-.6875-3.441406-1.84375-1.226563-1.808594-.859375-4.253907.839843-5.625l46.917969-36.929688-75.539062 43.5625c-1.9375 1.105469-4.402344.5-5.609375-1.378906-1.207032-1.875-.734375-4.367187 1.074218-5.671875l62.027344-44.152344-79.316406 45.746094c-1.953125 1.105469-4.433594.476562-5.625-1.425781-1.207031-1.910157-.6875-4.433594 1.175781-5.707031l66.394531-45.410157-77.640624 45.15625c-1.96875 1.230469-4.5625.628907-5.792969-1.34375-1.226563-1.96875-.625-4.5625 1.34375-5.789062l41.96875-27.53125-48.515625 28.035156c-1.96875 1.226563-4.5625.625-5.789063-1.34375-1.230469-1.972656-.628906-4.5625 1.339844-5.792969l63.539063-41.964844-69.917969 40.621094c-1.289063.78125-2.894531.8125-4.214844.085938-1.320313-.726563-2.152344-2.101563-2.183594-3.609375-.03125-1.503907.746094-2.914063 2.035157-3.695313l41.96875-27.023437-45.410157 26.269531c-1.953125 1.105469-4.433593.476562-5.625-1.425781-.59375-.921875-.796875-2.046875-.558593-3.117188.234374-1.070312.890624-2.003906 1.820312-2.589843l70.921875-46.753907-75.539063 43.648438c-1.273437.792969-2.875.847656-4.203124.140625-1.324219-.707032-2.171876-2.066406-2.222657-3.566406s.703125-2.914063 1.976563-3.710938l76.632812-50.359375-79.402344 45.828125c-1.933593 1.121094-4.40625.53125-5.625-1.34375-1.199218-1.957031-.644531-4.511719 1.261719-5.789062l80.660157-53.46875-82.84375 47.84375c-1.949219.976562-4.324219.296874-5.460938-1.5625-1.136719-1.859376-.660156-4.28125 1.097656-5.574219l67.144532-44.148438-67.144532 38.777344c-1.949218.976563-4.324218.300781-5.460937-1.5625-1.140625-1.859375-.664063-4.28125 1.09375-5.570313l9.316406-5.875-7.554687 4.363282c-1.976563 1.113281-4.484376.488281-5.707032-1.425782-1.15625-1.964843-.605468-4.484374 1.261719-5.792968l40.621094-26.1875-37.769531 21.824218c-1.917969.917969-4.222657.253907-5.359376-1.546874-1.136718-1.800782-.746093-4.167969.910157-5.503907l71.261719-48.09375-67.148438 38.777344c-1.917969.917969-4.222656.253906-5.359375-1.546875s-.746094-4.167969.910156-5.503906l75.542969-52.878906-68.324219 39.449218c-1.949219.976563-4.320312.296875-5.460937-1.5625-1.136719-1.859375-.660156-4.28125 1.097656-5.570312l10.996094-7.21875-2.6875 1.507812c-1.894532.886719-4.152344.242188-5.292969-1.511718-1.140625-1.753907-.816406-4.078126.761719-5.453126l44.402344-32.230468-29.714844 16.785156c-1.898438 1.179688-4.382813.664062-5.660156-1.167969-1.273438-1.835937-.886719-4.34375.875-5.714843l26.859374-21.988282c-1.15625-.265625-2.160156-.996094-2.769531-2.015625-.839843-1.824219-.234375-3.992187 1.429688-5.121093l36.175781-20.980469c1.898438-1.042969 4.277344-.503907 5.539062 1.257812 1.246094 1.785157.917969 4.226563-.757812 5.621094l-21.820312 17.460937 55.144531-31.8125c1.933593-1.121093 4.40625-.53125 5.621093 1.34375 1.246094 1.867188.800782 4.378907-1.003906 5.707032l-44.402344 32.148437 64.042969-36.933593c1.972657-1.160157 4.511719-.523438 5.707031 1.429687 1.144532 1.9375.59375 4.429687-1.261718 5.707031l-10.992188 7.132813 18.464844-10.660157c1.957031-1.128906 4.457031-.539062 5.707031 1.34375 1.207031 1.910157.6875 4.429688-1.175781 5.707032l-75.121094 52.796875 89.894532-51.871094c1.949218-.980469 4.320312-.300781 5.460937 1.558594 1.136719 1.863281.660156 4.285156-1.097656 5.574219l-71.261719 48.09375 80.914062-46.667969c.945313-.578125 2.082032-.753907 3.15625-.488281 1.074219.269531 1.992188.960937 2.550782 1.917968 1.175781 1.949219.582031 4.484375-1.34375 5.707032l-40.621094 26.1875 45.40625-26.019532c1.949219-.980468 4.324219-.300781 5.460938 1.558594 1.136718 1.863281.664062 4.285156-1.09375 5.574219l-9.316407 5.875 11.832031-6.796875c1.949219-.976563 4.324219-.300782 5.460938 1.558594 1.136719 1.863281.664062 4.285156-1.09375 5.574218l-67.148438 44.148438 71.34375-41.210938c1.96875-1.226562 4.5625-.625 5.792969 1.34375 1.226563 1.96875.625 4.5625-1.34375 5.792969l-80.746093 53.464844 84.355468-48.683594c1.273438-.792969 2.875-.847656 4.199219-.140625 1.328125.707031 2.175781 2.066406 2.226563 3.566406.050781 1.5-.703126 2.914063-1.980469 3.710938l-76.628907 50.359375 78.308594-44.988281c1.949219-.976563 4.324219-.296876 5.460938 1.5625 1.136718 1.859374.664062 4.28125-1.09375 5.570312l-71.09375 46.753906 70.671875-41.378906c1.949219-.980469 4.324219-.300781 5.460937 1.558594 1.136719 1.863281.660156 4.285156-1.097656 5.574218l-41.964844 27.109376 41.128906-23.667969c1.945313-1.152344 4.460938-.515625 5.621094 1.425781 1.191406 1.929688.636719 4.457031-1.257812 5.707031l-63.371094 41.96875 60.347656-34.917969c1.980469-1.113281 4.488282-.488281 5.710938 1.429688 1.15625 1.960938.605468 4.484375-1.261719 5.789062l-41.964844 27.53125 38.609375-22.242187c1.933594-1.121094 4.40625-.53125 5.621094 1.34375 1.210938 1.90625.691406 4.429687-1.171875 5.707031l-66.394531 45.40625 59.929687-35.082031c1.925781-1.167969 4.433594-.570313 5.625 1.339844 1.222657 1.890625.742188 4.40625-1.09375 5.710937l-61.941406 44.148438 51.367187-29.628906c1.878907-1.175782 4.351563-.613282 5.539063 1.257812 1.226563 1.808594.863281 4.253906-.839844 5.625l-46.835937 36.679688 25.9375-14.773438c.953125-.574219 2.097656-.738281 3.171875-.453125 1.078125.285156 1.992187.992187 2.535156 1.964844 1.152344 2.019531.484375 4.589843-1.511719 5.789062l-78.226562 44.90625c-.527344.339844-1.132813.542969-1.761719.585938zm0 0" fill="#9ed26a" fill-rule="evenodd"/><g fill="#262626"><path d="m379.515625.28125c-33.277344.199219-65.097656 13.679688-88.394531 37.445312-23.292969 23.769532-36.128906 55.851563-35.660156 89.128907 0 3.191406.421874 6.378906.753906 9.570312h-14.351563c-.972656-.542969-2.078125-.804687-3.1875-.757812h-100.722656c-1.164063.027343-2.320313.195312-3.441406.503906-32.316407-1.089844-70.503907-6.378906-100.722657 2.183594-31.976562 8.894531-30.214843 37.519531-30.214843 64.292969v159.476562c0 31.472656-9.066407 77.386719 1.679687 107.855469 12.085938 34.160156 66.140625 23.753906 93.5 23.753906h166.359375c23.082031 0 55.144531 5.539063 77.554688-3.359375 38.863281-15.359375 25.179687-79.066406 25.179687-111.546875v-135.386719c3.105469 0 6.214844.417969 9.402344.417969 67.921875-.289063 123.367188-54.398437 125.3125-122.292969-3.1875-67.144531-53.96875-121.453125-123.046875-121.285156zm-195.316406 254.40625c-6.496094 2.015625-12.308594 5.792969-16.785157 10.910156-5.792968 5.550782-11.992187 10.65625-18.550781 15.277344-8.390625 5.035156-4.949219 9.90625-7.21875-1.089844-4.363281-21.738281 0-49.019531 0-71.175781v-66.5625h53.382813c2.769531 0 6.546875 0 10.492187-.753906h22.328125c.855469.1875 1.699219.441406 2.515625.753906.421875 2.445313.421875 4.941406 0 7.386719-1.761719 9.738281-3.945312 120.53125-.503906 134.296875-12.335937-10.578125-29.207031-31.8125-45.660156-29.042969zm171.898437 204.378906c-9.988281 43.816406-71.34375 29.882813-105.167968 29.882813h-157.378907c-33.574219 0-72.183593 6.796875-77.636719-37.769531-4.703124-39.03125 0-81.667969 0-120.949219v-140.59375c0-19.640625-3.023437-40.539063 24.003907-48.34375 11.414062-3.273438 28.371093 0 40.203125 0h49.605468v119.605469c0 6.714843-2.515624 18.800781.757813 25.179687 9.0625 17.796875 29.292969-4.53125 38.609375-12.085937 3.777344-3.105469 10.996094-11.667969 15.777344-13.261719 2.179687 1.371093 4.15625 3.039062 5.875 4.953125 9.234375 9.148437 20.480468 16.785156 30.636718 25.179687.445313.335938.964844.566407 1.511719.671875 27.027344 7.132813 19.472657-34.078125 19.472657-48.851562v-101.476563c4.824218-.929687 9.78125-.929687 14.605468 0 2.433594 15.5625 7.941406 30.484375 16.199219 43.898438.609375 1.363281 1.308594 2.679687 2.097656 3.945312 4.96875 7.40625 10.800781 14.199219 17.375 20.226563 17.472657 16.933594 39.59375 28.269531 63.539063 32.570312v107.855469c-.085938 33.570313 7.300781 76.460937-.085938 109.363281zm16.789063-224.019531c-16.832031-1.246094-33.144531-6.359375-47.675781-14.941406h-.671876c-1.847656-1.089844-3.609374-2.347657-5.457031-3.609375-23.601562-16.117188-40.523437-40.289063-47.589843-67.984375-1.554688-6.167969-2.566407-12.457031-3.019532-18.800781-2.363281-30.613282 8.003906-60.84375 28.65625-83.5625 20.652344-22.714844 49.761719-35.910157 80.457032-36.464844 63.707031 0 109.785156 51.703125 112.722656 113.226562-3.019532 62.449219-51.28125 116.667969-117.757813 112.136719zm0 0"/><path d="m213.324219 382.855469v67.148437c0 5.789063 12.257812 3.609375 12.257812-1.175781v-67.148437c0-5.789063-12.257812-3.609376-12.257812 1.175781zm0 0" fill-rule="evenodd"/><path d="m246.984375 383.863281v50.359375c0 2.433594 12.085937.589844 12.085937-3.1875v-50.363281c0-2.433594-12.085937-.585937-12.085937 3.191406zm0 0" fill-rule="evenodd"/><path d="m280.472656 382.941406v50.359375c0 5.289063 12.253906 2.851563 12.253906-1.34375v-50.359375c0-5.289062-12.253906-2.855468-12.253906 1.34375zm0 0" fill-rule="evenodd"/><path d="m314.132812 383.863281v67.148438c0 1.761719 12.085938 0 12.085938-3.191407v-67.148437c0-1.761719-12.085938-.167969-12.085938 3.191406zm0 0" fill-rule="evenodd"/><path d="m156.25 446.980469h-100.71875c-2.4375 0-13.683594 4.871093-7.890625 4.871093h100.71875c2.4375 0 13.683594-4.871093 7.890625-4.871093zm0 0" fill-rule="evenodd"/><path d="m57.207031 373.875 5.121094-5.121094v48.765625c0 3.105469 12.085937 1.09375 12.085937-3.1875v-42.808593l5.203126 5.121093c3.777343 3.777344 15.363281-1.175781 11.082031-5.371093l-16.789063-16.789063c-.179687-.253906-.449218-.433594-.753906-.503906-3.695312-2.515625-11.667969.503906-11.414062 3.945312l-15.78125 15.949219c-2.769532 3.273438 8.730468 2.433594 11.246093 0zm0 0" fill-rule="evenodd"/><path d="m141.140625 354.652344c-2.011719-2.433594-8.390625 0-10.320313 1.34375-5.542968 5.625-11.164062 11.246094-16.789062 16.789062-5.625 5.539063 6.800781 5.371094 9.90625 2.347656l5.707031-5.789062v47.253906c0 5.289063 12.253907 2.851563 12.253907-1.34375v-43.980468l5.035156 5.035156c3.105468 3.105468 14.6875-1.511719 11.246094-4.867188zm0 0" fill-rule="evenodd"/><path d="m415.777344 78.089844c-18.96875 25.515625-38.078125 51.003906-57.328125 76.464844-5.289063-7.136719-10.660157-14.1875-15.949219-21.234376-3.523438-4.703124-15.023438 0-11.078125 5.539063l20.984375 27.949219c1.46875 1.40625 3.464844 2.125 5.496094 1.980468 2.03125-.144531 3.90625-1.136718 5.164062-2.734374l62.949219-83.9375c4.699219-6.292969-6.714844-8.8125-10.238281-4.027344zm0 0" fill-rule="evenodd"/></g></svg>