<svg height="507pt" viewBox="0 -1 507.6603 507" width="507pt" xmlns="http://www.w3.org/2000/svg"><path d="m142.894531 419.328125c-1.929687.015625-3.628906-1.261719-4.148437-3.121094-.519532-1.855469.269531-3.832031 1.929687-4.816406l39.9375-24.40625-54.785156 31.746094c-2.003906 1.179687-4.585937.53125-5.800781-1.453125-1.191406-2.03125-.546875-4.640625 1.449218-5.886719l64.085938-38.742187-79.871094 46.082031c-1.320312.957031-3.066406 1.082031-4.507812.320312-1.4375-.761719-2.320313-2.277343-2.269532-3.90625.050782-1.625 1.023438-3.082031 2.507813-3.753906l21.675781-13.140625-35.925781 20.480469c-2.003906 1.179687-4.585937.53125-5.800781-1.453125-1.191406-2.03125-.546875-4.640625 1.449218-5.886719l104.703126-63.914063-123.476563 71.253907c-2.007813 1.179687-4.585937.53125-5.800781-1.453125-1.191406-2.03125-.546875-4.640625 1.449218-5.886719l167.59375-103.253906-183.722656 106.070312c-2.003906 1.179688-4.585937.535157-5.800781-1.453125-1.246094-2.050781-.597656-4.722656 1.449219-5.972656l133.460937-81.234375-139.261719 80.46875c-2.050781 1.175781-4.667968.46875-5.847656-1.578125-1.175781-2.050781-.472656-4.667969 1.578125-5.847656l3.242188-1.960938-3.328125 1.621094c-1.894532 1.164062-4.371094.636719-5.628906-1.195312-1.179688-2.007813-.535157-4.589844 1.449218-5.804688l207.019532-128-206.082032 119.210938c-.9375.605468-2.078125.8125-3.167968.570312-1.089844-.238281-2.039063-.90625-2.632813-1.847656-1.179687-2.007813-.535156-4.589844 1.449219-5.804688l139.605468-84.90625-135.253906 77.824219c-.96875.582031-2.132812.75-3.226562.460937-1.089844-.289062-2.019532-1.011718-2.574219-1.996093-1.179687-2.007813-.535156-4.589844 1.449219-5.804688l196.265625-120.574219-191.742188 110.933594c-.96875.582032-2.132812.75-3.226562.457032-1.09375-.289063-2.023438-1.007813-2.574219-1.992188-1.183594-2.007812-.535156-4.589844 1.449219-5.804688l170.667969-104.019531-166.488282 95.570313c-2.019531 1.152344-4.59375.472656-5.78125-1.527344-1.1875-2.003906-.550781-4.589844 1.429688-5.808594l206.761718-127.234375-202.410156 116.652344c-1.296875 1.035156-3.078125 1.222656-4.5625.480469-1.484375-.742188-2.40625-2.273438-2.359375-3.933594.042969-1.660156 1.046875-3.140625 2.570313-3.800781l216.746094-133.972657-212.394532 122.625c-2.03125 1.117188-4.585937.441407-5.800781-1.539062-.589844-.957031-.769531-2.113281-.496094-3.207031.273438-1.089844.972657-2.027344 1.945313-2.59375l223.832031-138.753907-219.480469 126.464844c-.96875.585938-2.132812.75-3.226562.460938-1.089844-.289063-2.019532-1.011719-2.574219-1.996094-1.179687-2.007812-.535156-4.589844 1.449219-5.804688l93.867187-56.574218-89.085937 51.199218c-2.035156 1.117188-4.589844.441407-5.804688-1.535156-1.179687-2.007812-.535156-4.585937 1.449219-5.800781l57.261719-34.648437-52.90625 30.550781c-.96875.582031-2.132813.75-3.226563.460937-1.09375-.289062-2.023437-1.011718-2.578125-1.996094-1.179687-2.007812-.535156-4.589843 1.449219-5.804687l126.039063-77.3125-122.113282 70.570313c-2.03125 1.117187-4.585937.441406-5.800781-1.535157-1.179687-2.003906-.535156-4.585937 1.449219-5.800781l22.613281-13.652344-18.261719 10.496094c-2.003906 1.179688-4.585937.53125-5.800781-1.453125-.59375-.972656-.777344-2.140625-.503906-3.246094.273437-1.105469.976562-2.058593 1.953125-2.640625l148.480468-92.84375-144.128906 83.199219c-2.027344 1.167969-4.613281.480469-5.800781-1.535156-.589844-.957031-.769531-2.113281-.496094-3.207031.273438-1.089844.972657-2.027344 1.945313-2.59375l117.847656-73.644532-113.496094 65.535156c-1.980468.996094-4.394531.304688-5.550781-1.585937s-.671875-4.355469 1.113281-5.667969l130.050782-82.855468-125.613282 72.617187c-1.980468.992187-4.394531.304687-5.550781-1.585937-1.15625-1.894532-.671875-4.355469 1.113281-5.667969l107.265625-68.265625-102.398437 59.734375c-2.035156 1.117187-4.589844.441406-5.804688-1.539063-1.195312-1.984375-.589844-4.558594 1.367188-5.800781l89.34375-58.027344-85.335938 49.238281c-1.980468.992188-4.394531.304688-5.550781-1.589843-1.15625-1.890625-.671875-4.351563 1.113281-5.664063l61.78125-40.019531-57.597656 33.277344c-2.027344 1.226562-4.664062.578125-5.890625-1.449219-1.222656-2.027344-.574219-4.664062 1.453125-5.890625l41.898438-26.878906-37.207032 21.675781c-2 1.25-4.636718.636719-5.886718-1.367188-1.25-2-.636719-4.636718 1.367187-5.886718l72.957031-49.578125-68.265625 39.507812c-1.957031 1.1875-4.507812.578125-5.71875-1.363281-1.292969-1.910156-.796875-4.507812 1.109375-5.804688l56.320313-39.507812-51.710938 29.867188c-1.972656 1.09375-4.453125.5-5.71875-1.367188-1.292969-1.90625-.796875-4.503906 1.109375-5.800781l35.160156-25.515625-30.722656 17.75c-1.96875 1.125-4.476562.507812-5.703125-1.398438-1.226562-1.910156-.746093-4.445312 1.097657-5.769531l12.03125-8.535156-7.425782 4.269531c-1.902344 1.117188-4.34375.597656-5.628906-1.195312-1.277344-1.769532-.980469-4.222657.679688-5.632813l27.308593-24.148437-22.359375 12.882812c-1.78125.964844-3.992187.542969-5.296875-1.007812-1.300781-1.550782-1.335937-3.800782-.078125-5.390626l12.375-14.507812c-1.855468.496094-3.808594-.308594-4.78125-1.960938-.582031-.96875-.746094-2.132812-.457031-3.226562s1.007813-2.023438 1.996094-2.578125l19.453125-11.773437c1.816406-1.003907 4.085937-.613282 5.460937.9375 1.269531 1.632812 1.269531 3.914062 0 5.546874l-11.945312 14.507813 37.972656-21.933594c1.90625-1.117187 4.347656-.597656 5.632813 1.195313 1.277343 1.769531.976562 4.21875-.683594 5.632812l-27.304688 24.234375 53.84375-31.0625c1.972656-1.121093 4.476563-.507812 5.703125 1.398438 1.226563 1.910156.746094 4.445312-1.09375 5.769531l-12.03125 8.535156 27.050781-15.703125c1.957032-1.1875 4.503907-.578125 5.714844 1.367188 1.246094 1.917969.757813 4.476562-1.109375 5.800781l-35.328125 25.003906 55.808594-32.171875c1.972656-1.121093 4.476562-.507812 5.703125 1.398438 1.226563 1.910156.746094 4.445312-1.09375 5.769531l-56.320313 39.511719 80.554688-46.679688c1.957031-1.1875 4.507812-.578125 5.714844 1.367188.613281.925781.832031 2.058593.609375 3.148437-.222657 1.089844-.871094 2.042969-1.800781 2.652344l-72.789063 50.007812 99.242187-57.175781c1.980469-.992187 4.394532-.300781 5.550782 1.589844s.671875 4.351563-1.113282 5.664063l-41.898437 26.882812 59.21875-34.136719c1.984375-.992187 4.394531-.300781 5.550781 1.589844 1.160156 1.890625.675782 4.351563-1.113281 5.664063l-62.035156 39.765624 81.664062-47.019531c1.980469-.992187 4.394531-.300781 5.550781 1.589844s.671876 4.351563-1.113281 5.664063l-89.773437 57.6875 112.386718-64.941407c1.980469-.992187 4.394532-.300781 5.550782 1.589844s.671875 4.351563-1.113282 5.664063l-107.265624 68.269531 131.242187-75.523438c1.980469-.992187 4.394531-.300781 5.550781 1.589844s.675782 4.351563-1.113281 5.664063l-129.707031 82.605468 155.648437-89.859375c2.007813-1.179687 4.589844-.53125 5.800781 1.453125.59375.957032.769532 2.113282.5 3.207032-.273437 1.089843-.976562 2.027343-1.949218 2.59375l-117.84375 73.644531 140.203125-80.898438c1.960937-.847656 4.25-.113281 5.351562 1.722657 1.097657 1.835937.671875 4.199218-1 5.53125l-148.394531 92.84375 173.480469-100.097657c1.316406-.957031 3.066406-1.082031 4.503906-.320312 1.441406.761719 2.320313 2.277343 2.269531 3.90625-.050781 1.625-1.023437 3.082031-2.503906 3.753906l-22.699219 13.738281 36.519531-21.078125c2.007813-1.179687 4.589844-.53125 5.804688 1.453125.59375.972656.773438 2.140625.503906 3.246094-.273437 1.105469-.976562 2.054688-1.953125 2.640625l-126.039062 77.3125 146.601562-84.652344c.96875-.582031 2.132813-.746093 3.226563-.457031s2.023437 1.007812 2.578125 1.996094c1.179687 2.003906.535156 4.585937-1.453125 5.800781l-57.429688 34.644531 67.246094-38.570312c.96875-.582032 2.132812-.75 3.226562-.457032 1.089844.289063 2.019532 1.007813 2.574219 1.992188 1.179688 2.007812.535157 4.589844-1.449219 5.804688l-93.269531 56.320312 98.816407-57.089844c2.003906-1.179687 4.585937-.535156 5.800781 1.453125.59375.96875.777343 2.140625.503906 3.246094s-.976563 2.054687-1.953125 2.640625l-223.402344 138.753906 227.925782-131.671875c2.019531-1.152343 4.59375-.472656 5.78125 1.53125 1.1875 2.003907.550781 4.585938-1.429688 5.808594l-216.746094 133.800781 213.929688-123.304687c1.296875-1.035157 3.078125-1.222657 4.5625-.480469 1.484375.738281 2.40625 2.273438 2.359375 3.933594-.042969 1.660156-1.046875 3.140625-2.570313 3.800781l-206.761718 127.230469 202.410156-116.648438c.96875-.585937 2.132812-.75 3.226562-.460937 1.09375.289062 2.023438 1.007812 2.574219 1.996093 1.179687 2.003907.535156 4.585938-1.449219 5.800782l-170.242187 104.023437 165.890625-95.746093c.96875-.582032 2.132812-.75 3.226562-.457032 1.09375.289063 2.023438 1.007813 2.574219 1.992188 1.179687 2.007812.535156 4.589844-1.449219 5.804687l-196.265625 120.574219 191.828125-110.933594c2.035156-1.117187 4.585938-.441406 5.800782 1.539063 1.183593 2.003906.535156 4.585937-1.449219 5.800781l-139.605469 85.332031 135.253906-78.078125c.96875-.582031 2.132813-.75 3.226563-.460937 1.09375.289062 2.023437 1.011719 2.574219 1.996093 1.183593 2.007813.535156 4.589844-1.449219 5.804688l-206.675781 127.742188 202.410156-117.332032c.96875-.585937 2.132812-.75 3.226562-.460937 1.09375.289062 2.023438 1.011719 2.574219 1.996093 1.179687 2.007813.535156 4.589844-1.449219 5.804688l-4.011718 2.386719c1.992187-.875 4.324218-.148438 5.460937 1.707031 1.179687 2.007812.535156 4.589844-1.449219 5.804688l-133.632812 81.40625 129.28125-74.582032c2.003906-1.179687 4.585937-.535156 5.800781 1.453125 1.191406 2.03125.546875 4.640625-1.449219 5.886719l-167.507812 102.996094 163.15625-93.867188c.96875-.582031 2.132812-.746094 3.226562-.457031s2.023438 1.007813 2.574219 1.996094c1.179687 2.003906.535156 4.585937-1.449219 5.800781l-104.363281 63.742188 100.265625-57.855469c.96875-.582031 2.132812-.746094 3.226562-.457031 1.09375.289062 2.023438 1.007812 2.578126 1.996093 1.179687 2.003907.535156 4.585938-1.453126 5.800781l-22.355468 13.566407 17.75-10.238281c2.023437-1.152344 4.59375-.472657 5.78125 1.53125 1.1875 2 .550781 4.585937-1.429688 5.808593l-63.488281 38.824219 59.136719-34.132812c2.035156-1.117188 4.585937-.441407 5.800781 1.535156 1.179687 2.007812.535156 4.589844-1.449219 5.804687l-40.023437 24.40625 35.671875-20.566406c2.027344-1.164063 4.617187-.480469 5.800781 1.535156.589844.960938.769531 2.117188.496094 3.207031-.273438 1.09375-.972657 2.027344-1.945313 2.597657l-105.726562 65.707031 101.375-58.539062c1.980468-.996094 4.394531-.304688 5.550781 1.585937s.671875 4.355469-1.113281 5.667969l-117.929688 75.007812 113.492188-65.539062c2.027344-1.222656 4.660156-.574219 5.886718 1.453125 1.226563 2.027343.578126 4.660156-1.449218 5.886719l-124.503906 81.492187 120.066406-69.375c2.011718-1.132813 4.558594-.496094 5.800781 1.449219 1.195313 1.984375.589844 4.5625-1.363281 5.804687l-93.867188 61.269531 89.257813-51.199218c2.007812-1.179688 4.589843-.535156 5.804687 1.449218 1.164063 1.96875.605469 4.507813-1.28125 5.804688l-82.773437 55.207031 78.25-45.226562c2.007812-1.179688 4.589843-.53125 5.804687 1.453125 1.164063 1.96875.605469 4.503906-1.28125 5.800781l-57.429687 38.316406 52.90625-30.550781c1.953125-.933594 4.296875-.257812 5.449219 1.574219 1.15625 1.828125.757812 4.234375-.925782 5.59375l-50.175781 34.132812 45.824219-26.539062c2.003906-1.246094 4.636718-.636719 5.886718 1.367187s.636719 4.640625-1.363281 5.886719l-23.980469 16.300781 19.457032-11.265625c1.972656-1.09375 4.453125-.5 5.714844 1.367188 1.222656 1.90625.777343 4.425781-1.023438 5.800781l-32.425781 23.894531 27.734375-15.957031c1.910156-1.195312 4.425781-.625 5.632812 1.28125 1.289063 1.824219.914063 4.34375-.855468 5.714844l-23.722657 19.285156 18.945313-11.007812c1.929687-1.058594 4.347656-.511719 5.632812 1.28125 1.265625 1.816406.929688 4.296874-.769531 5.714843l-8.535156 7.339844 2.5625-1.449219c1.316406-.957031 3.0625-1.082031 4.503906-.320312 1.4375.761718 2.320313 2.273437 2.269531 3.902344-.050781 1.628906-1.023437 3.085937-2.507812 3.753906l-44.800782 25.601562c-1.890624.972656-4.214843.402344-5.4375-1.339844-1.226562-1.738281-.980468-4.117187.574219-5.570312l8.535157-7.339844-24.75 14.25c-1.914063 1.148438-4.394532.582032-5.628907-1.28125-1.292969-1.824218-.914062-4.34375.851563-5.714844l23.722656-19.117187-45.226562 26.113281c-1.957032 1.1875-4.507813.578125-5.71875-1.363281-1.207032-1.882813-.761719-4.375 1.027343-5.71875l32.425781-23.894531-53.761718 30.976562c-1.988282 1.148438-4.53125.550782-5.800782-1.363281-1.210937-1.964844-.644531-4.535156 1.277344-5.804687l23.980469-16.382813-40.789063 23.808594c-1.972656 1.121093-4.476562.507812-5.703124-1.398438-1.226563-1.910156-.746094-4.445312 1.09375-5.769531l50.261718-34.136719-72.191406 41.304688c-1.980469 1.171875-4.535156.523437-5.71875-1.453125-1.226562-1.941406-.699219-4.503906 1.195312-5.800782l57.429688-38.230468-78.847656 45.484375c-2.003906 1.179687-4.585938.53125-5.800782-1.453125-1.167968-1.96875-.609374-4.503906 1.277344-5.800782l82.773438-55.125-108.117188 62.378907c-1.980468.992187-4.394531.300781-5.550781-1.589844s-.671875-4.351563 1.113281-5.664063l93.867188-61.183593-118.699219 68.265625c-1.980469 1.171875-4.535156.523437-5.714844-1.449219-1.214843-1.964844-.644531-4.535156 1.277344-5.804687l124.332031-81.324219-153.601562 88.75c-1.980469.992187-4.394532.300781-5.550782-1.589844s-.671874-4.351563 1.113282-5.664063l117.847656-75.007812-142.507812 82.261719c-1.980469.992187-4.394532.300781-5.550782-1.589844s-.671875-4.351563 1.113282-5.664063l105.730468-66.050781-126.976562 73.304688c-.738282.460937-1.609375.671875-2.476563.597656zm0 0" fill="#fab153" fill-rule="evenodd"/><path d="m305.027344 193.449219c-1.191406-.011719-2.332032-.503907-3.15625-1.367188-1.324219-1.460937-1.5-3.632812-.425782-5.289062l7.253907-11.007813-15.105469 8.53125c-1.804688 1.007813-4.066406.574219-5.375-1.023437-1.355469-1.566407-1.355469-3.890625 0-5.460938l14.25-17.066406-23.894531 13.824219c-1.917969 1.148437-4.398438.582031-5.632813-1.28125-1.175781-1.703125-.960937-4.003906.511719-5.460938l6.742187-5.546875-11.519531 6.570313c-1.929687 1.296875-4.546875.78125-5.84375-1.148438-1.296875-1.933594-.78125-4.550781 1.152344-5.847656l6.058594-4.777344-11.007813 6.3125c-1.910156 1.195313-4.425781.625-5.632812-1.277344-1.273438-1.851562-.859375-4.375.9375-5.71875l13.996094-10.835937-79.53125 45.90625c-1.980469.996094-4.394532.304687-5.550782-1.585937-1.15625-1.890626-.675781-4.351563 1.113282-5.664063l27.734374-18.605469-24.152343 13.996094c-2 1.25-4.636719.636719-5.886719-1.367188-1.25-2-.636719-4.636718 1.367188-5.886718l34.132812-22.867188-29.355469 17.066406c-1.296875.804688-2.925781.863282-4.269531.144532-1.347656-.71875-2.210938-2.101563-2.261719-3.628906-.054687-1.523438.714844-2.960938 2.007813-3.769532l23.980468-15.957031-19.457031 11.261719c-1.988281 1.125-4.507812.484375-5.71875-1.449219-1.21875-1.914063-.6875-4.453125 1.195313-5.71875l47.277344-32.597656-42.667969 24.664062c-1.980469 1.171875-4.535157.523438-5.71875-1.453125-1.226563-1.9375-.699219-4.503906 1.195312-5.800781l32.171875-21.589844-27.992187 16.214844c-1.96875 1.121094-4.472657.507813-5.703125-1.402344-1.226563-1.90625-.742188-4.441406 1.097656-5.765625l59.734375-42.242187-55.210937 31.914062c-2.027344 1.226563-4.664063.578125-5.890626-1.449219-1.222656-2.027343-.574218-4.664062 1.453126-5.886718l5.972656-3.839844-1.535156.851562c-1.972657 1.125-4.476563.507813-5.703126-1.398437-1.226562-1.910156-.746093-4.445313 1.09375-5.769531l57.601563-41.898438-52.910156 30.632813c-1.96875 1.097656-4.453125.503906-5.714844-1.363281-1.21875-1.90625-.773437-4.429688 1.023437-5.804688l34.816407-25.597656-30.125 17.578125c-1.902344 1.128906-4.351563.613281-5.640625-1.1875-1.289063-1.800781-.988282-4.285157.691406-5.726563l31.320312-27.730468-26.371093 15.019531c-1.828125 1.015625-4.121094.585937-5.460938-1.027344-1.316406-1.582031-1.316406-3.878906 0-5.460937l14.765625-17.066407-9.386718 5.375c-1.425782.941407-3.269532.941407-4.695313 0-1.332031-1.015625-1.964844-2.707031-1.621094-4.351562l2.558594-10.835938c-1.476563-.628906-2.480469-2.035156-2.585937-3.640625-.109376-1.605468.695312-3.132812 2.074218-3.953125l4.269532-2.476562c1.421874-.9375 3.269531-.9375 4.691406 0 1.335937 1.019531 1.964844 2.710937 1.621094 4.351562l-2.046876 8.535157 23.125-13.054688c1.828126-1.019531 4.125-.589844 5.460938 1.023438 1.316406 1.582031 1.316406 3.878906 0 5.460937l-14.761719 17.066406 40.53125-23.636719c1.910157-1.078124 4.324219-.566406 5.632813 1.195313 1.289062 1.792969.992187 4.273437-.683594 5.714844l-31.230469 27.734375 59.734375-34.644532c1.957032-1.1875 4.507813-.578124 5.714844 1.363282 1.253906 1.871094.804688 4.398437-1.023438 5.71875l-34.816406 25.597656 57.175782-32.765625c1.96875-1.09375 4.453124-.503906 5.714843 1.363281 1.203125 1.929688.71875 4.457032-1.109375 5.804688l-57.769531 41.8125 65.707031-37.886719c1.980469-.996094 4.394532-.304687 5.550782 1.585937 1.15625 1.890626.671874 4.355469-1.113282 5.667969l-6.058594 4.007813 1.621094-.9375c1.96875-1.125 4.476563-.507813 5.703125 1.398437 1.226563 1.910157.746094 4.445313-1.09375 5.769531l-59.734375 42.238282 55.210938-31.914063c2.003906-1.246093 4.636718-.636719 5.886718 1.367188 1.25 2.003906.636719 4.636719-1.363281 5.886719l-32.085937 21.675781 27.648437-16.042969c1.984375-1.125 4.503907-.484375 5.714844 1.449219.613281.929687.832031 2.0625.609375 3.152343-.226562 1.085938-.875 2.042969-1.804688 2.652344l-47.273437 32.511719 42.667969-24.660156c2.011718-1.132813 4.558594-.496094 5.800781 1.449219 1.167969 1.96875.605469 4.507812-1.277344 5.800781l-23.980469 15.960937 19.457032-11.265625c1.296875-.808593 2.921875-.863281 4.269531-.144531s2.210937 2.101562 2.261719 3.625c.050781 1.527344-.714844 2.964844-2.007813 3.773438l-34.136719 22.78125 29.355469-17.066407c1.296875-.804687 2.925781-.863281 4.273438-.144531 1.347656.71875 2.207031 2.101562 2.261719 3.628906.050781 1.523438-.714844 2.960938-2.011719 3.769532l-27.390625 18.773437 23.296875-13.480469c1.953125-1.070312 4.402343-.523437 5.714843 1.277344 1.199219 1.894531.792969 4.382812-.9375 5.804688l-14.164062 10.835937 9.300781-5.375c1.914063-1 4.277344-.40625 5.496094 1.378906 1.21875 1.78125.910156 4.195313-.71875 5.617188l-6.058594 4.695312 1.28125-.683593c1.902344-1.121094 4.34375-.601563 5.628907 1.195312 1.277343 1.84375.945312 4.355469-.765626 5.800781l-6.742187 5.292969 1.878906-1.109375c1.828125-1.015625 4.121094-.585937 5.460938 1.023437 1.316406 1.582032 1.316406 3.878907 0 5.460938l-14.335938 16.640625 8.53125-5.207031c1.742188-.925782 3.882813-.613282 5.292969.769531 1.195312 1.5625 1.195312 3.730469 0 5.289063l-6.488281 11.265624 1.539062-.9375c.96875-.585937 2.132813-.75 3.226563-.460937s2.019531 1.007813 2.574218 1.996094c1.171876 2.054687.492188 4.667969-1.535156 5.886719l-17.066406 9.898437c-.574219.351563-1.210938.582031-1.878906.683594zm0 0" fill="#ffd67b" fill-rule="evenodd"/><path d="m27.867188 462.25c-1.296876-.019531-2.515626-.613281-3.328126-1.621094-1.367187-1.597656-1.367187-3.953125 0-5.546875l19.964844-21.335937-35.753906 20.824218c-1.917969 1.144532-4.398438.582032-5.632812-1.28125-1.265626-1.816406-.929688-4.300781.769531-5.71875l3.585937-2.898437c-1.445312.3125-2.945312-.179687-3.925781-1.28125-1.402344-1.386719-1.617187-3.574219-.511719-5.207031l6.738282-10.238282c-2.054688.371094-4.078126-.804687-4.777344-2.773437-.699219-1.96875.132812-4.15625 1.964844-5.164063l13.90625-8.019531c1.71875-1.023437 3.917968-.71875 5.289062.734375 1.375 1.457032 1.550781 3.667969.429688 5.324219l-6.484376 9.726563 27.5625-15.871094c1.929688-1.195313 4.457032-.675782 5.753907 1.191406 1.292969 1.863281.902343 4.414062-.890625 5.804688l-2.476563 1.964843 16.042969-8.960937c1.816406-.949219 4.050781-.472656 5.324219 1.132812 1.269531 1.605469 1.222656 3.886719-.117188 5.4375l-20.054687 21.332032 48.386718-27.902344c1.820313-1.054688 4.140626-.617188 5.460938 1.023437 1.363281 1.597657 1.363281 3.949219 0 5.546875l-19.96875 21.164063 48.128906-27.734375c1.875-1.109375 4.289063-.589844 5.546875 1.195312 1.285157 1.792969.988281 4.273438-.683593 5.714844l-15.789063 13.570312 34.730469-20.054687c1.835937-.945313 4.085937-.445313 5.34375 1.191406 1.257812 1.632813 1.164062 3.9375-.222656 5.464844l-19.285157 18.859375 44.972657-25.601562c1.886718-1.09375 4.296874-.621094 5.628906 1.109374 1.269531 1.785157 1.011718 4.234376-.59375 5.71875l-17.921875 17.066407 40.703125-23.464844c1.894531-.976563 4.214844-.402344 5.441406 1.335937 1.226562 1.742188.980469 4.121094-.578125 5.574219l-14.761719 12.800781 34.132813-19.710937c1.917969-1.148437 4.398437-.585937 5.632812 1.277344 1.246094 1.839843.875 4.324219-.851562 5.71875l-7.851563 6.230469 22.953125-13.226563c1.835938-.949219 4.082031-.449219 5.339844 1.1875 1.261719 1.636719 1.167969 3.9375-.21875 5.46875l-19.625 19.027344 45.820313-26.453125c1.859374-1.125 4.269531-.644532 5.546874 1.109375 1.367188 1.597656 1.367188 3.949219 0 5.546875l-19.367187 19.285156 44.96875-25.601562c1.890625-1.09375 4.300781-.621094 5.632813 1.109374 1.277343 1.738282 1.054687 4.15625-.511719 5.632813l-18.089844 17.066406 41.042969-23.636719c1.863281-1.085937 4.246094-.609374 5.546875 1.109376 1.25 1.773437 1.035156 4.195312-.511719 5.71875l-17.066406 15.957031 39.59375-22.785157c1.875-.957031 4.164062-.410156 5.398437 1.292969s1.042969 4.050781-.449219 5.535157l-17.066406 15.1875 38.144532-22.015626c1.863281-1.085937 4.242187-.609374 5.546874 1.109376 1.414063 1.609374 1.414063 4.023437 0 5.632812l-19.113281 17.320312 42.664063-24.574218c1.835937-.949219 4.082031-.445313 5.339844 1.1875 1.261718 1.636718 1.167968 3.9375-.21875 5.46875l-19.199219 19.199218 44.800781-25.597656c1.855469-1.128906 4.265625-.648437 5.546875 1.109375 1.414063 1.609375 1.414063 4.019531 0 5.628907l-18.945313 18.519531 40.277344-23.296875c1.84375-1.035156 4.167969-.5625 5.460938 1.109375 1.332031 1.609375 1.332031 3.9375 0 5.546875l-18.003906 19.457031 21.585937-12.546875c1.832031-1.015625 4.125-.585938 5.464844 1.027344 1.363281 1.59375 1.363281 3.949218 0 5.542968l-6.058594 6.828126 1.191406-.683594c1.507813-.863282 3.382813-.730469 4.75.339844 1.371094 1.066406 1.953125 2.855468 1.480469 4.527343l-1.875 6.484375c.640625.429688 1.191406.980469 1.621094 1.621094 1.171875 2.054688.488281 4.667969-1.539063 5.886719l-4.265625 2.390625c-1.441406.976562-3.335937.976562-4.777344 0-1.375-1.0625-1.953124-2.859375-1.453124-4.523438l1.109374-3.667968-14.847656 8.53125c-1.796875 1.113281-4.136718.710937-5.460937-.9375-1.363281-1.597657-1.363281-3.949219 0-5.546876l6.058593-6.828124-23.210937 13.398437c-1.839844 1.0625-4.183594.609375-5.492187-1.066406-1.3125-1.675781-1.1875-4.058594.289062-5.589844l18.003906-19.457031-46.164062 25.515625c-1.871094 1.046875-4.222656.574219-5.546875-1.109375-1.414063-1.609375-1.414063-4.019532 0-5.632813l18.941406-18.601562-43.859375 25.601562c-1.859375 1.070313-4.230469.59375-5.53125-1.117187-1.296875-1.710938-1.121094-4.121094.410156-5.625l19.199219-19.113282-44.796875 25.597657c-1.863281 1.085937-4.246094.609375-5.546875-1.109375-1.300781-1.714844-1.117187-4.128906.425781-5.632813l18.601563-17.832031-42.664063 24.574219c-1.90625 1.121093-4.347656.601562-5.632812-1.195313-1.296875-1.746094-1.039063-4.195312.597656-5.628906l17.066406-15.191406-38.144531 22.015625c-1.863281 1.085937-4.246094.609375-5.546875-1.109375-1.289062-1.761719-1.070312-4.210938.511719-5.714844l17.066406-15.960938-39.507813 22.871094c-1.886718 1.066406-4.269531.554688-5.546874-1.195312-1.339844-1.703125-1.15625-4.148438.425781-5.632813l18.089843-17.066406-40.53125 23.894531c-1.871093 1.046875-4.222656.574219-5.546874-1.109375-1.300782-1.714843-1.117188-4.132812.425781-5.632812l19.285156-19.285157-44.972656 26.027344c-1.863281 1.085938-4.242188.609375-5.542969-1.109375-1.40625-1.582031-1.40625-3.964843 0-5.546875l20.136719-19.796875-45.824219 26.453125c-1.945312 1.15625-4.453125.59375-5.71875-1.28125-1.371094-1.710937-1.222656-4.179687.34375-5.714844l7.765625-6.230468-22.871094 13.226562c-1.902343 1.128906-4.355469.613282-5.640625-1.1875-1.289062-1.800781-.988281-4.285156.691406-5.722656l14.847657-12.800781-34.132813 19.710937c-1.851562.949219-4.121094.425782-5.367187-1.242187-1.242188-1.667969-1.105469-3.992188.332031-5.5l17.921875-17.066407-40.621094 23.550782c-1.867187 1.046875-4.222656.578125-5.546875-1.109375-1.414062-1.609375-1.414062-4.019531 0-5.628907l19.371094-19.285156-44.96875 25.597656c-1.902344 1.121094-4.347656.601563-5.632812-1.195312-1.246094-1.804688-.953126-4.253906.683593-5.714844l15.101563-13.140625-34.132813 20.820313c-1.839843 1.0625-4.183593.609375-5.492187-1.066406-1.3125-1.675782-1.1875-4.058594.289062-5.589844l19.96875-21.164063-48.128906 27.820313c-.636719.402344-1.378906.613281-2.132812.597656zm0 0" fill="#a38671" fill-rule="evenodd"/><path d="m47.832031 504.660156c-1.804687-.011718-3.410156-1.15625-4.003906-2.863281s-.046875-3.601563 1.359375-4.730469l7.765625-6.144531-22.785156 13.140625c-1.839844 1.101562-4.21875.664062-5.542969-1.023438-1.378906-1.625-1.378906-4.007812 0-5.632812l19.539062-19.625-32.339843 18.855469c-1.84375 1.035156-4.167969.5625-5.460938-1.109375-1.457031-1.59375-1.457031-4.035156 0-5.628906l11.433594-11.265626-9.386719 5.460938c-1.390625.945312-3.21875.945312-4.609375 0-1.367187-.953125-2.039062-2.628906-1.707031-4.265625l2.902344-14.847656c-1.023438-.261719-1.894532-.945313-2.390625-1.878907-.582031-.96875-.746094-2.132812-.457031-3.226562.289062-1.09375 1.007812-2.023438 1.996093-2.574219l4.265625-2.476562c1.402344-.898438 3.203125-.898438 4.609375 0 1.367188.953125 2.039063 2.632812 1.703125 4.265625l-2.472656 13.058594 30.804688-17.664063c1.855468-1.128906 4.265624-.644531 5.546874 1.109375 1.414063 1.609375 1.414063 4.019531 0 5.632812l-11.859374 11.175782 31.144531-18.003906c1.839843-1.0625 4.183593-.609376 5.496093 1.066406 1.308594 1.675781 1.183594 4.058594-.289062 5.589844l-19.542969 19.625 45.738281-26.367188c1.945313-1.15625 4.453126-.59375 5.71875 1.28125 1.246094 1.835938.875 4.324219-.855468 5.714844l-7.765625 6.144531 9.984375-5.800781c1.9375-1.019532 4.328125-.476563 5.632812 1.277344 1.246094 1.808593.953125 4.257812-.683594 5.71875l-6.824218 5.886718 1.875-1.109375c1.738281-1.03125 3.964844-.671875 5.292968.855469 1.222657 1.550781 1.222657 3.738281 0 5.289062l-5.972656 8.535157c1.957032-.011719 3.667969 1.3125 4.152344 3.210937.484375 1.898438-.382812 3.878906-2.105469 4.808594l-13.738281 7.9375c-1.746094.996094-3.949219.640625-5.292969-.855469-1.289062-1.523437-1.289062-3.761719 0-5.289062l5.121094-7.339844-23.464844 13.484375c-1.90625 1.117188-4.347656.601562-5.632812-1.195312-1.289063-1.792969-.992188-4.273438.683593-5.71875l6.824219-5.886719-22.269531 12.800781c-.632812.414062-1.378906.621094-2.136719.597656zm0 0" fill="#937661" fill-rule="evenodd"/><path d="m455.640625 504.660156c-1.425781-.011718-2.757813-.710937-3.582031-1.878906-1.207032-1.84375-.839844-4.300781.851562-5.714844l4.011719-3.242187-17.75 10.238281c-1.863281 1.085938-4.242187.609375-5.546875-1.109375-1.414062-1.609375-1.414062-4.019531 0-5.632813l18.433594-17.066406-39.511719 22.785156c-1.835937 1.074219-4.1875.597657-5.460937-1.109374-1.441407-1.566407-1.441407-3.980469 0-5.546876l17.921874-17.835937-22.527343 13.570313c-1.84375 1.03125-4.167969.5625-5.460938-1.109376-1.40625-1.585937-1.40625-3.964843 0-5.546874l8.53125-8.535157-4.179687 2.390625c-1.425782.9375-3.269532.9375-4.695313 0-1.367187-1.066406-1.96875-2.84375-1.535156-4.523437l2.390625-9.300781c-.835938-.324219-1.527344-.925782-1.964844-1.707032-.582031-.96875-.75-2.132812-.460937-3.226562.292969-1.09375 1.011719-2.023438 1.996093-2.578125l4.269532-2.472657c1.421875-.9375 3.269531-.9375 4.691406 0 1.40625 1.003907 2.050781 2.765626 1.621094 4.4375l-1.792969 6.910157 20.3125-11.6875c1.8125-.949219 4.046875-.476563 5.320313 1.128906 1.273437 1.605469 1.222656 3.890625-.117188 5.441406l-8.53125 8.53125 27.21875-15.871093c1.863281-1.074219 4.230469-.59375 5.53125 1.117187s1.125 4.121094-.410156 5.625l-17.917969 17.832031 42.664063-24.660156c1.882812-1.09375 4.285156-.59375 5.578124 1.15625 1.289063 1.753906 1.058594 4.195312-.542968 5.671875l-18.347656 17.066406 32.429687-18.6875c1.90625-1.195312 4.425781-.625 5.628906 1.277344 1.269531 1.816406.933594 4.300781-.765625 5.71875l-4.269531 3.414063c1.878906-.699219 3.984375 0 5.070313 1.683593 1.089843 1.679688.859374 3.890625-.546876 5.3125l-4.007812 4.011719c1.6875-.167969 3.320312.667969 4.179688 2.132812.582031.96875.75 2.132813.460937 3.226563s-1.011719 2.023437-1.996094 2.574219l-25.601562 14.933594c-1.863281 1.085937-4.242188.609374-5.546875-1.109376-1.285156-1.6875-1.101563-4.074218.425781-5.546874l3.160156-3.15625-17.066406 9.8125c-.730469.574218-1.636719.875-2.5625.855468zm0 0" fill="#937661" fill-rule="evenodd"/><path d="m240.175781 504.660156c-1.753906-.023437-3.316406-1.113281-3.9375-2.753906-.621093-1.640625-.175781-3.492188 1.121094-4.671875l17.492187-16.125-37.632812 21.757813c-1.945312 1.085937-4.398438.492187-5.628906-1.363282-1.273438-1.851562-.859375-4.375.9375-5.71875l1.792968-1.367187-5.292968 3.074219c-1.769532 1.078124-4.054688.726562-5.421875-.828126-1.367188-1.558593-1.421875-3.871093-.125-5.488281l14.335937-18.261719-12.796875 7.425782c-1.425781.9375-3.269531.9375-4.695312 0-1.367188-1.03125-2-2.769532-1.621094-4.4375l2.558594-11.007813c-1.480469-.628906-2.480469-2.035156-2.585938-3.640625-.109375-1.605468.691407-3.132812 2.074219-3.953125l4.269531-2.476562c1.421875-.9375 3.269531-.9375 4.691407 0 1.335937 1.019531 1.964843 2.710937 1.621093 4.351562l-2.046875 8.535157 23.464844-13.570313c1.765625-.972656 3.972656-.578125 5.292969.945313 1.316406 1.523437 1.386719 3.765624.167969 5.371093l-14.25 18.515625 42.667968-24.574218c1.917969-1.148438 4.398438-.582032 5.632813 1.28125 1.28125 1.875.867187 4.425781-.941407 5.800781l-1.789062 1.367187 14.675781-8.535156c1.910157-1.078125 4.324219-.566406 5.632813 1.195312 1.296875 1.746094 1.035156 4.195313-.597656 5.632813l-17.578126 16.128906 30.976563-17.835937c1.78125-.964844 3.992187-.542969 5.296875 1.007812 1.300781 1.550782 1.332031 3.804688.078125 5.390625l-15.703125 18.859375 10.328125-5.972656c1.316406-.957031 3.0625-1.082031 4.503906-.320312 1.4375.761718 2.320313 2.273437 2.269531 3.902343-.050781 1.628907-1.023437 3.085938-2.507812 3.757813l-31.148438 18.003906c-1.796874 1.109375-4.136718.707031-5.460937-.9375-1.285156-1.59375-1.285156-3.867188 0-5.460938l15.789063-18.773437-43.777344 25.171875c-.632813.414062-1.378906.621094-2.132813.597656zm0 0" fill="#937661" fill-rule="evenodd"/><g fill="#262626"><path d="m.304688 459.261719c0 20.394531-3.414063 42.667969 22.867187 43.605469 21.417969.9375 43.179687 0 64.597656 0 .933594.113281 1.882813.113281 2.816407 0 24.148437-3.925782 24.574218-20.566407 24.40625-40.105469h81.320312c0 19.625-1.363281 40.703125 23.980469 42.070312 21.332031 1.191407 42.667969 0 64.339843 0 .902344.164063 1.828126.164063 2.730469 0 .96875-.007812 1.929688-.210937 2.816407-.597656 21.417968-4.867187 21.335937-22.53125 21.164062-41.472656h81.320312c0 19.710937-1.703124 39.679687 23.554688 41.042969 21.332031 1.195312 42.664062 0 64.339844 0h2.730468c26.367188-4.265626 24.320313-24.320313 24.234376-45.824219 0-22.78125 3.328124-41.386719-22.953126-47.101563-4.160156-.785156-8.40625-1.042968-12.628906-.769531 27.304688-20.050781 18.34375-66.132813 18.34375-100.351563v-230.398437c0-40.535156 1.027344-75.519531-49.148437-76.800781-67.074219-2.304688-134.65625-.257813-201.898438-.257813-58.457031 0-118.785156-4.4375-177.070312 0-48.382813 3.414063-44.882813 43.179688-44.882813 80.214844v230.398437c0 31.746094-8.535156 77.226563 15.871094 96.855469-3.121094.042969-6.234375.355469-9.300781.9375-26.027344 5.546875-23.808594 24.746094-23.808594 47.703125 0 .339844.171875.511719.257813.851563zm102.398437 11.265625c0 8.53125 2.476563 25-9.128906 27.5625h-54.613281c-12.800782 0-23.808594-.941406-26.457032-16.554688-.597656-6.214844-.597656-12.472656 0-18.6875h90.113282c-.128907 2.558594-.128907 5.121094 0 7.679688zm185.941406 25.597656h-53.589843c-11.519532 0-23.894532 1.109375-26.195313-14.078125-.640625-6.46875-.640625-12.988281 0-19.457031h90.109375c.597656 11.433594 2.132812 31.746094-10.410156 33.792968zm196.949219 1.023438h-54.101562c-12.117188 0-23.296876-1.023438-26.453126-15.871094-.816406-6.203125-.816406-12.484375 0-18.6875h89.941407v7.679687c.171875 8.875 2.730469 24.832031-9.472657 27.136719zm-172.628906-308.476563c-17.066406-11.179687-41.472656-34.816406-62.71875-30.890625-9.558594 1.789062-18.859375 10.324219-26.882813 15.273438-12.285156 7.59375-25.597656 23.125-31.65625 7.851562-3.5-8.535156 0-26.882812 0-35.671875v-136.105469h121.855469c1.140625.339844 2.355469.339844 3.496094 0-.511719.511719-1.363282 2.132813-1.109375 7.167969.515625 15.871094-2.386719 162.988281-2.984375 172.375zm-283.390625 11.6875v-98.898437c0-17.066407-4.523438-41.984376 0-58.882813 13.566406-50.6875 84.222656-33.449219 123.5625-33.449219h26.28125v142.335938c0 9.386718-3.328125 25.601562 0 34.132812 7.851562 21.589844 29.355469 3.925782 41.984375-3.925781 12.628906-7.847656 23.210937-19.113281 37.035156-15.101563 13.824219 4.007813 31.570312 19.539063 44.800781 27.816407.523438.386719 1.140625.621093 1.789063.683593 33.28125 6.65625 23.042968-39.9375 23.042968-59.734374v-126.207032h29.011719c37.886719 0 110.933594-15.359375 121.003907 34.816406 3.921874 19.625 0 44.289063 0 64.253907v224.429687c0 21.246094 7.765624 67.070313-20.738282 77.652344h-394.152344c-19.609374-2.414062-34.167968-19.335938-33.621093-39.082031-2.390625-56.578125 0-114.007813 0-170.839844zm-4.097657 219.820313c5.800782-2.558594 18.6875 0 24.832032 0h23.808594c41.414062 2.21875 82.917968 2.21875 124.328124 0h241.152344c33.539063 0 53.589844-5.800782 55.210938 32.9375h-427.433594c-5.289062 0-16.296875 1.453124-27.648438 2.304687h-24.832031c-2.5-.238281-4.917969-1.023437-7.082031-2.304687 4.777344 3.414062 5.632812-27.648438 17.664062-32.9375zm0 0"/><path d="m311.171875 371.027344v-68.265625c0-2.5625-12.289063-.683594-12.289063 3.242187v68.265625c0 2.5625 12.289063.683594 12.289063-3.242187zm0 0" fill-rule="evenodd"/><path d="m447.707031 371.027344v-68.265625c0-3.671875-12.289062-1.453125-12.289062 3.242187v68.265625c0 3.671875 12.289062 1.453125 12.289062-3.242187zm0 0" fill-rule="evenodd"/><path d="m345.304688 353.960938v-51.199219c0-1.964844-12.285157 0-12.285157 3.242187v51.199219c0 1.964844 12.285157.257813 12.285157-3.242187zm0 0" fill-rule="evenodd"/><path d="m379.523438 355.582031v-51.199219c0-6.570312-12.457032-4.777343-12.457032.851563v51.203125c0 6.140625 12.457032 4.351562 12.457032-.855469zm0 0" fill-rule="evenodd"/><path d="m413.574219 353.960938v-51.199219c0-3.839844-12.289063-1.535157-12.289063 3.242187v51.199219c0 3.839844 12.289063 1.535156 12.289063-3.242187zm0 0" fill-rule="evenodd"/><path d="m68.484375 368.980469c-4.949219 0-13.054687 7.335937-4.777344 7.335937h102.398438c4.949219 0 13.054687-7.335937 4.777343-7.335937zm0 0" fill-rule="evenodd"/><path d="m71.214844 297.46875 5.71875-5.714844v47.359375c0 6.058594 12.457031 3.925781 12.457031-1.195312v-44.96875l5.035156 4.949219c2.132813 2.132812 13.3125-2.476563 11.605469-4.097657l-17.066406-17.066406c-1.449219-3.925781-8.535156-1.878906-11.09375 0l-17.066406 17.066406c-5.207032 5.804688 6.828124 7.253907 10.410156 3.667969zm0 0" fill-rule="evenodd"/><path d="m139.480469 297.46875 5.71875-5.714844v47.359375c0 6.058594 12.457031 4.011719 12.457031-1.195312v-44.886719l5.035156 5.035156c2.644532 2.648438 14.25-1.875 11.605469-4.4375l-17.066406-17.066406c-1.535157-3.667969-8.53125-1.707031-11.007813.511719l-17.066406 17.066406c-5.289062 5.464844 6.65625 6.914063 10.324219 3.328125zm0 0" fill-rule="evenodd"/></g></svg>